<svg width="16" height="16" viewBox="0 0 16 16" fill="none" xmlns="http://www.w3.org/2000/svg">
<path d="M15.995 15.9997V15.999H15.999V10.1309C15.999 7.2602 15.381 5.04883 12.025 5.04883C10.4116 5.04883 9.32893 5.93418 8.88692 6.77352H8.84026V5.31683H5.6582V15.999H8.97159V10.7096C8.97159 9.3169 9.2356 7.97021 10.9603 7.97021C12.6597 7.97021 12.685 9.55957 12.685 10.7989V15.9997H15.995Z" fill="#071832"/>
<path d="M0.261719 5.31738H3.57911V15.9996H0.261719V5.31738Z" fill="#071832"/>
<path d="M1.92137 0C0.860681 0 0 0.860681 0 1.92137C0 2.98205 0.860681 3.86073 1.92137 3.86073C2.98205 3.86073 3.84273 2.98205 3.84273 1.92137C3.84206 0.860681 2.98138 0 1.92137 0V0Z" fill="#071832"/>
</svg>
