<svg width="328" height="170" viewBox="0 0 328 170" fill="none" xmlns="http://www.w3.org/2000/svg">
<g clip-path="url(#clip0_481_7848)">
<rect width="327" height="170" transform="translate(0.5)" fill="#0AC5A8"/>
<rect x="-74" y="-40" width="402" height="308" fill="#F7F7F7"/>
<path opacity="0.15" d="M61 168.083L71.4512 128.459M71.4512 128.459L71.4512 132.719L74.224 132.719M71.4512 128.459L71.4512 124.198L77.4234 124.198M83.3955 132.719L83.3955 124.198L77.4234 124.198M83.3955 132.719L93.2069 168.083M83.3955 132.719L81.5292 132.719M74.224 132.719L68.0386 168.083M74.224 132.719L75.9303 132.719M75.9303 132.719L74.224 168.083M75.9303 132.719L79.6629 132.719M79.6629 132.719L79.6629 168.083M79.6629 132.719L81.5292 132.719M85.5284 168.083L81.5292 132.719M77.4234 124.198L77.4234 85M77.4234 85L249.975 85M77.4234 85L77.4234 83.0827M249.975 85L123.281 86.9173L123.281 126.115M249.975 85C223.492 85.4008 170.077 86.3453 168.285 86.9173L168.285 89.8998M249.975 85L249.975 87.4499M249.975 85L249.975 83.0827M249.975 89.8997L260 89.8997L260 77.5439L249.975 77.5439M249.975 89.8997L249.975 87.4499M249.975 89.8997L168.285 89.8998M249.975 77.5439L249.975 80.3133M249.975 77.5439L168.285 80.1003M106.857 170L117.309 130.376M117.309 130.376L117.309 134.637L120.081 134.637M117.309 130.376L117.309 126.115L123.281 126.115M129.253 134.637L129.253 126.115L123.281 126.115M129.253 134.637L139.064 170M129.253 134.637L127.387 134.637M120.081 134.637L113.896 170M120.081 134.637L121.788 134.637M121.788 134.637L120.081 170M121.788 134.637L125.52 134.637M125.52 134.637L125.52 170M125.52 134.637L127.387 134.637M131.386 170L127.387 134.637M151.862 170L162.313 130.376M162.313 130.376L162.313 134.637L165.086 134.637M162.313 130.376L162.313 126.115L168.285 126.115M174.257 134.637L174.257 126.115L168.285 126.115M174.257 134.637L184.069 170M174.257 134.637L172.391 134.637M165.086 134.637L158.9 170M165.086 134.637L166.792 134.637M166.792 134.637L165.086 170M166.792 134.637L170.525 134.637M170.525 134.637L170.525 170M170.525 134.637L172.391 134.637M176.39 170L172.391 134.637M168.285 126.115L168.285 89.8998M200.919 170L211.37 130.376M211.37 130.376L211.37 134.637L214.143 134.637M211.37 130.376L211.37 126.115L217.342 126.115M223.314 134.637L223.314 126.115L217.342 126.115M223.314 134.637L233.125 170M223.314 134.637L221.448 134.637M214.143 134.637L207.957 170M214.143 134.637L215.849 134.637M215.849 134.637L214.143 170M215.849 134.637L219.581 134.637M219.581 134.637L219.581 170M219.581 134.637L221.448 134.637M225.447 170L221.448 134.637M217.342 126.115L217.342 86.9173L249.975 87.4499M61 1.91731L71.4512 41.5414M71.4512 41.5414L71.4512 37.2807L74.224 37.2807M71.4512 41.5414L71.4512 45.802L77.4234 45.802M83.3955 37.2807L83.3955 45.802L77.4234 45.802M83.3955 37.2807L93.2069 1.91731M83.3955 37.2807L81.5292 37.2807M74.224 37.2807L68.0386 1.91731M74.224 37.2807L75.9303 37.2807M75.9303 37.2807L74.224 1.91731M75.9303 37.2807L79.6629 37.2807M79.6629 37.2807L79.6629 1.91731M79.6629 37.2807L81.5292 37.2807M85.5284 1.91731L81.5292 37.2807M77.4234 45.802L77.4234 83.0827M106.857 1.62643e-05L117.309 39.6241M117.309 39.6241L117.309 35.3634L120.081 35.3634M117.309 39.6241L117.309 43.8847L123.281 43.8847M129.253 35.3634L129.253 43.8847L123.281 43.8847M129.253 35.3634L139.064 1.48565e-05M129.253 35.3634L127.387 35.3634M120.081 35.3634L113.896 1.59567e-05M120.081 35.3634L121.788 35.3634M121.788 35.3634L120.081 1.56863e-05M121.788 35.3634L125.52 35.3634M125.52 35.3634L125.52 1.54485e-05M125.52 35.3634L127.387 35.3634M131.386 1.51922e-05L127.387 35.3634M123.281 43.8847L123.281 83.0827M123.281 83.0827L249.975 83.0827M123.281 83.0827L77.4234 83.0827M151.862 1.42971e-05L162.313 39.6241M162.313 39.6241L162.313 35.3634L165.086 35.3634M162.313 39.6241L162.313 43.8847L168.285 43.8847M174.257 35.3634L174.257 43.8847L168.285 43.8847M174.257 35.3634L184.069 1.28893e-05M174.257 35.3634L172.391 35.3634M165.086 35.3634L158.9 1.39895e-05M165.086 35.3634L166.792 35.3634M166.792 35.3634L165.086 1.37191e-05M166.792 35.3634L170.525 35.3634M170.525 35.3634L170.525 1.34813e-05M170.525 35.3634L172.391 35.3634M176.39 1.3225e-05L172.391 35.3634M168.285 43.8847L168.285 80.1003M200.919 1.21528e-05L211.37 39.6241M211.37 39.6241L211.37 35.3634L214.143 35.3634M211.37 39.6241L211.37 43.8847L217.342 43.8847M223.314 35.3634L223.314 43.8847L217.342 43.8847M223.314 35.3634L233.125 1.0745e-05M223.314 35.3634L221.448 35.3634M214.143 35.3634L207.957 1.18451e-05M214.143 35.3634L215.849 35.3634M215.849 35.3634L214.143 1.15747e-05M215.849 35.3634L219.581 35.3634M219.581 35.3634L219.581 1.1337e-05M219.581 35.3634L221.448 35.3634M225.447 1.10806e-05L221.448 35.3634M217.342 43.8847L217.342 80.1003M217.342 83.0827L249.975 83.0827M217.342 83.0827L217.342 80.1003M217.342 83.0827L168.285 83.0827L168.285 80.1003M249.975 83.0827L249.975 80.3133M217.342 80.1003L249.975 80.3133" stroke="#071832"/>
</g>
<defs>
<clipPath id="clip0_481_7848">
<rect width="327" height="170" fill="white" transform="translate(0.5)"/>
</clipPath>
</defs>
</svg>
