<svg width="328" height="170" viewBox="0 0 328 170" fill="none" xmlns="http://www.w3.org/2000/svg">
<g clip-path="url(#clip0_481_1438)">
<rect width="327" height="170" transform="translate(0.5)" fill="#0AC5A8"/>
<rect x="-74" y="-40" width="402" height="308" fill="#F7F7F7"/>
<path opacity="0.15" d="M171.334 41.0313H114.488V21H228.18V41.0313H171.334ZM171.334 41.0313V49.0438M171.334 49.0438H89.3791V59.4601M171.334 49.0438H207.29M262.93 59.4601H279V79.4914H262.93M262.93 59.4601H237.42V79.4914H262.93M262.93 59.4601V49.0438H207.29M207.29 49.0438V59.4601M207.29 59.4601H225.167V79.4914H204.377M207.29 59.4601H183.587V79.4914H204.377M89.3791 59.4601H111.073V79.4914H90.283M89.3791 59.4601H69.493V79.4914H90.283M90.283 79.4914V103.529M90.283 103.529H101.431V149H75.1174V103.529H90.283ZM111.073 103.529H133.169V149H106.855V103.529H111.073ZM111.073 103.529V85.3005H63.6678V103.529M63.6678 103.529H74.3139V149H48V103.529H63.6678ZM161.491 103.529H167.517V149H141.203V103.529H161.491ZM161.491 103.529V85.3005H204.377M230.39 103.529H242.04V149H215.726V103.529H230.39ZM230.39 103.529V85.3005H204.377M204.377 79.4914V85.3005M262.93 79.4914V103.529M262.93 103.529H275.585V149H249.271V103.529H262.93ZM180.976 103.529V149H207.29V103.529H180.976Z" stroke="#071832"/>
</g>
<defs>
<clipPath id="clip0_481_1438">
<rect width="327" height="170" fill="white" transform="translate(0.5)"/>
</clipPath>
</defs>
</svg>
