<svg width="328" height="170" viewBox="0 0 328 170" fill="none" xmlns="http://www.w3.org/2000/svg">
<g clip-path="url(#clip0_230_6935)">
<rect width="327" height="170" transform="translate(0.5)" fill="#0AC5A8"/>
<rect x="-74" y="-40" width="402" height="308" fill="#F7F7F7"/>
<path opacity="0.15" d="M208.631 0L273.018 58.9109M273.018 58.9109H279.529M273.018 58.9109H263.613V68.1683M291.104 76.5842V69.0099L279.529 58.9109M291.104 76.5842H275.188L263.613 68.1683M291.104 76.5842L279.529 67.3267M291.104 76.5842L307.02 91.8317M328 111.931L307.02 91.8317M279.529 58.9109V67.3267M263.613 68.1683L279.529 67.3267M307.02 91.8317H253.485M253.485 91.8317L229.611 82.2417M253.485 91.8317L259.272 94.2221M293.998 108.564L279.529 102.588M24.8739 0L69.7279 18.0176M69.7279 18.0176V26.9307M69.7279 18.0176L116.752 36.907M69.7279 18.0176H55.9823V26.9307M69.7279 26.9307L116.752 43.7624M69.7279 26.9307H55.9823M116.752 43.7624V36.907M116.752 43.7624H98.6659L55.9823 26.9307M116.752 36.907L138.008 45.4455M138.008 45.4455V58.9109M138.008 45.4455L156.542 52.8904M101.56 159.901V111.931M101.56 159.901L98.6659 154.01L97.219 111.931M101.56 159.901H113.135M113.135 170V159.901M113.135 159.901H138.008V106.04M113.135 159.901V101.832M8.23451 71.5347L7.5 76.5842M8.23451 71.5347H1L3.17035 81.5M8.23451 71.5347L23.9696 74.0594M7.5 76.5842L40.7898 82.4752L39.7046 76.5842M7.5 76.5842L3.17035 81.5M39.7046 76.5842L76.4198 82.4752M39.7046 76.5842L23.9696 74.0594M39.7046 76.5842L40.7898 83.2588L37.896 88.3663L3.17035 81.5M76.4198 82.4752L74 87.5M76.4198 82.4752L81.3031 83.2588M74 87.5L82 86.509M74 87.5L89.9845 93.4158L101.56 91.8317M82 86.509L81.3031 83.2588M82 86.509L101.56 91.8317M81.3031 83.2588L101.56 86.509M101.56 91.8317V86.509M101.56 86.509L113.135 88.3663V95.9406V101.832M23.9696 74.0594L69.7279 62.2772M69.7279 62.2772V54.703H79.1327M69.7279 62.2772H79.1327M69.7279 62.2772L103.007 71.5347L105.9 69.0099M79.1327 54.703V62.2772M79.1327 54.703L105.9 58.9109M79.1327 62.2772L105.9 69.0099M105.9 69.0099V67.3267V63.1188M105.9 58.9109H138.008M105.9 58.9109V63.1188M138.008 58.9109H156.542M138.008 58.9109V93.4158M156.542 58.9109V52.8904M156.542 58.9109V62.2772M156.542 52.8904L168.841 57.8307M156.542 62.2772H168.841M156.542 62.2772L175.352 71.5347H189.821M168.841 62.2772V57.8307M168.841 62.2772L189.821 71.5347M168.841 57.8307L189.821 66.2583M189.821 71.5347V66.2583M189.821 66.2583L199.949 70.3268M105.9 63.1188L134.839 70.3003M134.839 70.3003L160.159 76.5842V82.4752L134.839 76.5842V70.3003ZM3.17035 88.3663L113.135 101.832M113.135 101.832L138.008 93.4158M113.135 101.832L138.008 106.04M138.008 93.4158V106.04M138.008 106.04L187.65 111.931H199.949M199.949 111.931V170M199.949 111.931V99.3069M199.949 70.3268V80.7921M199.949 70.3268L229.611 82.2417M199.949 80.7921L132.668 86.509L157.989 91.3255M199.949 80.7921V99.3069M199.949 99.3069L187.65 96.9675M187.65 96.9675L229.611 93.4158M187.65 96.9675L157.989 91.3255M229.611 93.4158V82.2417M229.611 93.4158V158.218M229.611 93.4158L259.272 94.2221M259.272 94.2221L279.529 102.588M259.272 94.2221V121.188M259.272 155.693V121.188M279.529 102.588V139.703L276.635 139.397M259.272 121.188H263.613V138.02L267.954 138.479M276.635 139.397V143.911H267.954V138.479M276.635 139.397V121.188H267.954V138.479M276.635 139.397L267.954 138.479M157.989 91.3255L156.542 159.901" stroke="#071832"/>
</g>
<defs>
<clipPath id="clip0_230_6935">
<rect width="327" height="170" fill="white" transform="translate(0.5)"/>
</clipPath>
</defs>
</svg>
