<svg width="328" height="170" viewBox="0 0 328 170" fill="none" xmlns="http://www.w3.org/2000/svg">
<g clip-path="url(#clip0_481_1424)">
<rect width="327" height="170" transform="translate(0.667969)" fill="#0AC5A8"/>
<rect x="-73.832" y="-40" width="402" height="308" fill="#F7F7F7"/>
<path opacity="0.15" d="M160.339 82.595L241.168 92.7549M160.339 82.595V11M160.339 82.595L166.557 88.4687M160.339 82.595L141.064 86.3256M160.339 82.595L165.468 75.2927M160.339 82.595L182.722 90.1561M241.168 92.7549L239.147 39.7333M241.168 92.7549L222.826 94.3423M241.168 92.7549L238.215 86.3256M239.147 39.7333L160.339 11M239.147 39.7333L236.66 46.8769M160.339 11L141.064 18.3024M160.339 11L165.468 22.906M141.064 18.3024V86.3256M141.064 18.3024V17.3499L135.935 19.2549V21.3186M141.064 154.349L164.07 158M141.064 154.349V120.337M141.064 154.349H135.935M164.07 158V120.218M164.07 158L211.013 151.015M164.07 120.218H191.582M164.07 120.218H160.805M191.582 120.218L211.013 151.015M191.582 120.218L207.536 132.6M211.013 151.015V145.3M207.536 132.6L211.013 135.299V145.3M207.536 132.6H211.013M219.562 132.6V145.3M219.562 132.6H222.826M219.562 132.6H216.764M219.562 145.3H211.013M219.562 145.3H222.826V132.6M222.826 94.3423V132.6M222.826 94.3423L216.764 93.7095M166.557 88.4687L141.064 86.3256M166.557 88.4687L182.722 90.1561M166.557 88.4687L160.805 95.1361M141.064 86.3256L149.147 94.3423M141.064 86.3256V120.337M165.468 22.906V25.1285M165.468 22.906L181.323 28.2445M165.468 75.2927V25.1285M165.468 75.2927L181.323 77.6973M238.215 86.3256L236.704 47.9881M238.215 86.3256L221.116 83.7324M236.66 46.8769L236.704 47.9881M236.66 46.8769L209.458 37.7177M165.468 25.1285L221.116 42.986M236.704 47.9881L221.116 42.986M221.116 42.986V83.7324M221.116 83.7324L209.458 81.9643M209.458 37.7177V81.9643M209.458 37.7177L197.178 33.583M209.458 81.9643L197.178 80.1019M197.178 33.583V80.1019M197.178 33.583L181.323 28.2445M197.178 80.1019L181.323 77.6973M181.323 28.2445V77.6973M182.722 90.1561L211.013 93.1092M149.147 94.3423L160.805 95.1361M149.147 94.3423L145.106 120.313M149.147 94.3423L158.163 96.406M160.805 95.1361V120.218M160.805 95.1361L158.163 96.406M160.805 120.218L158.163 120.234M141.064 120.337L145.106 120.313M145.106 120.313L158.163 120.234M158.163 96.406V120.234M216.764 93.7095V132.6M216.764 93.7095L211.013 93.1092M216.764 132.6H211.013M211.013 93.1092V132.6M135.935 154.349L113.862 151.174V135.299L115.728 135.474M135.935 154.349V137.363M135.935 137.363L115.728 135.474M135.935 137.363V21.3186M115.728 135.474L117.564 28.2445M80.1317 145.776L110.598 150.063L111.646 81.6425M80.1317 145.776H77.0229M80.1317 145.776L81.8075 86.3256M83.0851 41.0032L112.438 29.8909M83.0851 41.0032V39.4158L79.5099 41.0032L79.4685 42.7495M83.0851 41.0032L82.7137 54.1793M112.438 29.8909L112.463 28.2445L117.593 26.5572L117.564 28.2445M112.438 29.8909L112.202 45.2894M117.564 28.2445L135.935 21.3186M77.0229 145.776L61.168 143.554V47.8294H62.8778V48.7819L79.4685 42.7495M77.0229 145.776L79.4685 42.7495M82.7137 54.1793L112.202 45.2894M82.7137 54.1793L81.8075 86.3256M112.202 45.2894L112.173 47.1738M111.646 81.6425L88.5255 85.2712M111.646 81.6425L111.757 74.3402M81.8075 86.3256L85.883 85.686M85.883 85.686L88.5255 85.2712M85.883 85.686V78.9438M88.5255 85.2712V78.4737M112.173 47.1738L88.5255 54.6175M112.173 47.1738L111.757 74.3402M88.5255 54.6175L85.883 55.4492V78.9438M88.5255 54.6175V55.4492V78.4737M85.883 78.9438L88.5255 78.4737M111.757 74.3402L88.5255 78.4737" stroke="#071832"/>
</g>
<defs>
<clipPath id="clip0_481_1424">
<rect width="327" height="170" fill="white" transform="translate(0.667969)"/>
</clipPath>
</defs>
</svg>
