<svg width="328" height="170" viewBox="0 0 328 170" fill="none" xmlns="http://www.w3.org/2000/svg">
<g clip-path="url(#clip0_481_643)">
<rect width="327" height="170" transform="translate(0.667969)" fill="#0AC5A8"/>
<rect x="-73.832" y="-40" width="402" height="308" fill="#F7F7F7"/>
<path opacity="0.15" d="M93.029 68.8512C110.94 58.935 136.805 84.434 146.752 107.1C152.956 121.237 153.517 145.337 139.363 151.582M93.029 68.8512C79.11 76.5573 83.5222 103.033 93.0316 122.116C102.496 141.109 124.592 158.098 139.363 151.582M93.029 68.8512L190.799 13.3199C226.607 7.9367 255.311 71.9678 237.975 94.6336L139.363 151.582M229.449 92.6503C237.503 90.8811 240.647 82.3989 239.68 74.2343C238.821 66.9751 234.689 60.4293 228.028 58.9589M229.449 92.6503C228.281 92.907 227.141 92.9937 226.039 92.9304M229.449 92.6503C229.449 95.1771 225.461 98.0157 220.355 98.6297M228.028 58.9589C227.127 58.7598 226.179 58.6538 225.186 58.6516C215.384 58.6294 209.697 70.7898 212.398 80.1841C214.343 86.9515 219.533 92.5563 226.039 92.9304M228.028 58.9589C212.398 57.5183 207.856 63.6498 205.861 75.0843C205.861 84.1506 209.54 94.7901 226.039 92.9304M228.028 58.9589C226.868 56.4653 221.741 53.8835 215.808 54.6974M215.808 54.6974C211.572 55.2784 206.926 57.5905 203.019 62.9014C199.325 66.5846 197.007 80.837 205.861 92.9304C210.185 97.9156 215.728 99.1861 220.355 98.6297M215.808 54.6974H214.103M220.355 98.6297L217.513 99.0127M217.513 99.0127L205.861 100.583C195.878 97.5616 194.062 93.3505 190.799 85.8506C184.831 68.8512 194.778 56.1016 204.724 54.6974H214.103M217.513 99.0127C215.022 100.987 212.539 102.153 210.124 102.647M214.103 54.6974C210.829 52.5177 206.885 51.7978 203.019 52.4203M203.019 52.4203C193.798 53.9054 185.018 63.0289 186.82 78.2009C188.437 91.8098 198.486 105.03 210.124 102.647M203.019 52.4203L183.978 53.2684C171.413 57.3145 168.967 63.0252 170.053 77.3509C170.954 89.2505 180.568 105.967 193.072 105.117L210.124 102.647M226.039 66.5846C221.288 66.9631 219.189 72.7441 220.355 77.3509C221.336 81.2263 224.046 84.6171 228.028 84.1506C232.188 83.6634 233.971 79.2516 233.712 75.0843C233.436 70.6271 230.504 66.2289 226.039 66.5846ZM226.039 69.7012C222.812 70.2842 221.77 74.1957 222.629 77.3509C223.37 80.0734 225.211 82.4281 228.028 82.1674C231.195 81.8743 232.536 78.2104 232.007 75.0843C231.484 71.9945 229.132 69.1424 226.039 69.7012ZM102.13 78.2009C84.9849 83.5983 91.8126 109.42 102.13 124.099C110.054 135.374 120.09 145.695 133.107 141.099C149.532 135.299 142.608 111.179 133.107 96.6169C125.428 84.8458 115.561 73.9726 102.13 78.2009Z" stroke="#071832"/>
</g>
<defs>
<clipPath id="clip0_481_643">
<rect width="327" height="170" fill="white" transform="translate(0.667969)"/>
</clipPath>
</defs>
</svg>
