<svg width="24" height="24" viewBox="0 0 24 24" fill="none" xmlns="http://www.w3.org/2000/svg">
<g clip-path="url(#clip0_168_3057)">
<path d="M6.75 24.1H17.25C17.8733 24.1 18.471 23.8524 18.9117 23.4117C19.3524 22.971 19.6 22.3733 19.6 21.75V2.25C19.6 1.62674 19.3524 1.02901 18.9117 0.588299C18.471 0.147589 17.8733 -0.1 17.25 -0.1H6.75C6.12674 -0.1 5.52901 0.147589 5.0883 0.588299C4.64759 1.02901 4.4 1.62674 4.4 2.25V21.75C4.4 22.3733 4.64759 22.971 5.0883 23.4117C5.52901 23.8524 6.12674 24.1 6.75 24.1ZM9.88 1.6H14.12V1.775H9.88V1.6ZM6.1 2.25C6.1 2.07761 6.16848 1.91228 6.29038 1.79038C6.41228 1.66848 6.57761 1.6 6.75 1.6H8.18V2.625C8.18 2.85043 8.26955 3.06663 8.42896 3.22604C8.58837 3.38545 8.80457 3.475 9.03 3.475H14.97C15.1954 3.475 15.4116 3.38545 15.571 3.22604C15.7304 3.06663 15.82 2.85043 15.82 2.625V1.6H17.25C17.4224 1.6 17.5877 1.66848 17.7096 1.79038C17.8315 1.91228 17.9 2.07761 17.9 2.25V21.75C17.9 21.9224 17.8315 22.0877 17.7096 22.2096C17.5877 22.3315 17.4224 22.4 17.25 22.4H6.75C6.57761 22.4 6.41228 22.3315 6.29038 22.2096C6.16848 22.0877 6.1 21.9224 6.1 21.75V2.25Z" fill="#0AC5A8" stroke="#0AC5A8" stroke-width="0.2"/>
</g>
<defs>
<clipPath id="clip0_168_3057">
<rect width="24" height="24" fill="white"/>
</clipPath>
</defs>
</svg>
