<svg width="80" height="80" viewBox="0 0 80 80" fill="none" xmlns="http://www.w3.org/2000/svg">
<g clip-path="url(#clip0_238_8761)">
<path fill-rule="evenodd" clip-rule="evenodd" d="M60.5266 26.6955H50.9422V24.3577C50.9404 23.0756 50.4303 21.8467 49.5237 20.9402C48.6171 20.0337 47.3881 19.5237 46.1061 19.522H34.0502C32.7681 19.524 31.5391 20.0342 30.6325 20.9408C29.726 21.8474 29.2158 23.0764 29.2139 24.3584V26.6959H19.6297C18.8128 26.6968 18.0295 27.0217 17.4519 27.5994C16.8742 28.177 16.5493 28.9603 16.5484 29.7772V35.7269C16.5484 35.7581 16.55 35.7881 16.5514 35.8194C16.5497 35.8344 16.5487 35.8494 16.5484 35.8645V53.8873C16.5484 57.5197 19.7795 60.4783 23.7516 60.4783H56.4048C60.3767 60.4783 63.608 57.5208 63.608 53.8881V35.9564C63.608 35.9309 63.6047 35.9048 63.6033 35.8798C63.6048 35.8277 63.608 35.7783 63.608 35.7267V29.7766C63.6071 28.9596 63.2822 28.1764 62.7046 27.5988C62.1269 27.0211 61.3437 26.6963 60.5267 26.6955H60.5266ZM31.7141 24.3577C31.7149 23.7385 31.9613 23.1449 32.3992 22.707C32.837 22.2692 33.4306 22.0229 34.0498 22.022H46.1062C46.7255 22.0229 47.3192 22.2694 47.7571 22.7073C48.1949 23.1452 48.4413 23.7388 48.4422 24.3581V26.6956H31.7141V24.3577ZM19.0484 29.7766C19.0502 29.623 19.112 29.4762 19.2207 29.3676C19.3293 29.259 19.4761 29.1972 19.6297 29.1955H60.5266C60.6802 29.1973 60.827 29.2592 60.9356 29.3679C61.0441 29.4766 61.1059 29.6234 61.1077 29.777V35.7267C61.1057 37.4587 60.4168 39.1192 59.1921 40.344C57.9674 41.5687 56.3069 42.2577 54.5748 42.2597H46.0061V39.7222C46.0061 39.3907 45.8744 39.0727 45.64 38.8383C45.4056 38.6039 45.0876 38.4722 44.7561 38.4722H35.4002C35.0686 38.4722 34.7507 38.6039 34.5163 38.8383C34.2819 39.0727 34.1502 39.3907 34.1502 39.7222V42.2592H25.5812C23.8493 42.2574 22.1887 41.5686 20.964 40.344C19.7392 39.1193 19.0503 37.4589 19.0483 35.7269V29.7766H19.0484ZM43.5062 40.9717V45.6011H36.6502V40.9717H43.5062ZM61.1078 53.8873C61.1078 56.1423 58.9984 57.9783 56.4047 57.9783H23.7516C21.1578 57.9783 19.0484 56.1423 19.0484 53.8877V41.9561C19.8903 42.8419 20.9036 43.5473 22.0267 44.0292C23.1498 44.5111 24.3591 44.7595 25.5812 44.7594H34.15V46.8512C34.1502 47.1827 34.282 47.5005 34.5164 47.7349C34.7508 47.9692 35.0686 48.101 35.4 48.1012H44.7564C45.0879 48.1012 45.4059 47.9696 45.6403 47.7351C45.8747 47.5007 46.0064 47.1828 46.0064 46.8512V44.7594H54.5752C55.7972 44.7597 57.0066 44.5113 58.1297 44.0294C59.2527 43.5475 60.266 42.8422 61.1078 41.9562V53.8873ZM40.0781 0C62.1344 0 80.0781 17.9437 80.0781 40C80.0781 62.0563 62.1344 80 40.0781 80C18.0219 80 0.078125 62.0564 0.078125 40C0.078125 17.9436 18.0219 0 40.0781 0Z" fill="#0AC5A8"/>
</g>
<defs>
<clipPath id="clip0_238_8761">
<rect width="80" height="80" fill="white"/>
</clipPath>
</defs>
</svg>
