<svg width="85" height="85" viewBox="0 0 85 85" fill="none" xmlns="http://www.w3.org/2000/svg">
<path d="M42.5 85C65.9721 85 85 65.9721 85 42.5C85 19.0279 65.9721 0 42.5 0C19.0279 0 0 19.0279 0 42.5C0 65.9721 19.0279 85 42.5 85Z" fill="#F7F7F7"/>
<path d="M42.25 45.87C42.25 46.09 42.21 46.5 42.13 47.1C42.05 47.68 41.82 48.29 41.44 48.93C41.06 49.55 40.47 50.11 39.67 50.61C38.89 51.09 37.79 51.33 36.37 51.33C35.03 51.33 33.99 51.07 33.25 50.55C32.51 50.03 31.96 49.45 31.6 48.81C31.26 48.15 31.05 47.53 30.97 46.95C30.91 46.35 30.88 45.98 30.88 45.84V45.69H33.82V45.87C33.82 46.59 34.06 47.22 34.54 47.76C35.04 48.3 35.7 48.57 36.52 48.57C37.56 48.57 38.28 48.31 38.68 47.79C39.1 47.25 39.31 46.64 39.31 45.96C39.31 45.38 39.19 44.93 38.95 44.61C38.73 44.29 38.46 44.06 38.14 43.92C37.84 43.76 37.54 43.67 37.24 43.65C36.94 43.63 36.73 43.62 36.61 43.62H35.14V41.04H36.61C36.73 41.04 36.94 41.03 37.24 41.01C37.54 40.99 37.84 40.91 38.14 40.77C38.46 40.61 38.73 40.37 38.95 40.05C39.19 39.73 39.31 39.28 39.31 38.7C39.31 38 39.1 37.39 38.68 36.87C38.28 36.35 37.56 36.09 36.52 36.09C35.7 36.09 35.04 36.36 34.54 36.9C34.06 37.44 33.82 38.07 33.82 38.79V38.97H30.88V38.82C30.88 38.68 30.91 38.32 30.97 37.74C31.05 37.14 31.26 36.52 31.6 35.88C31.96 35.22 32.51 34.63 33.25 34.11C33.99 33.59 35.03 33.33 36.37 33.33C37.79 33.33 38.89 33.58 39.67 34.08C40.47 34.56 41.06 35.12 41.44 35.76C41.82 36.38 42.05 36.99 42.13 37.59C42.21 38.17 42.25 38.57 42.25 38.79C42.23 39.31 42.13 39.8 41.95 40.26C41.77 40.68 41.51 41.08 41.17 41.46C40.85 41.84 40.38 42.13 39.76 42.33C40.38 42.55 40.85 42.86 41.17 43.26C41.51 43.64 41.76 44.03 41.92 44.43C42.1 44.89 42.21 45.37 42.25 45.87ZM54.7063 46.2H51.8563V49.26H48.9163V46.2H46.0663V43.74H48.9163V40.68H51.8563V43.74H54.7063V46.2Z" fill="#071832"/>
</svg>
