<svg width="85" height="85" viewBox="0 0 85 85" fill="none" xmlns="http://www.w3.org/2000/svg">
<path d="M42.5 85C65.9721 85 85 65.9721 85 42.5C85 19.0279 65.9721 0 42.5 0C19.0279 0 0 19.0279 0 42.5C0 65.9721 19.0279 85 42.5 85Z" fill="#F7F7F7"/>
<g clip-path="url(#clip0_423_1086)">
<path d="M43.482 46.778C42.9211 46.778 42.4664 47.2327 42.4664 47.7937C42.4659 50.4226 40.3345 52.5534 37.7055 52.553C35.0765 52.5526 32.9456 50.4211 32.9461 47.7921C32.9466 45.1634 35.0776 43.0327 37.7063 43.0327C38.2672 43.0327 38.7219 42.578 38.7219 42.0171C38.7219 41.4562 38.2672 41.0015 37.7063 41.0015C33.9561 41.004 30.9166 44.0435 30.9141 47.7937C30.9141 51.5447 33.9548 54.5855 37.7059 54.5855C41.4569 54.5855 44.4977 51.5447 44.4977 47.7937C44.4977 47.2327 44.043 46.778 43.482 46.778Z" fill="#071832"/>
<path d="M51.5516 50.1296C51.4547 49.5771 50.9283 49.2077 50.3758 49.3046L48.25 49.6772C47.8612 49.7454 47.547 50.0327 47.4445 50.414C47.2179 51.2552 46.8825 52.0633 46.4469 52.8179C46.2483 53.1607 46.2672 53.5877 46.4953 53.9116L47.7359 55.6796C47.9095 55.9258 47.8805 56.2613 47.6672 56.4741L46.3922 57.7491C46.1797 57.9622 45.8447 57.9916 45.5984 57.8187L43.8305 56.578C43.5066 56.3499 43.0795 56.331 42.7367 56.5296C41.9823 56.9653 41.1741 57.3007 40.3328 57.5272C39.9516 57.6297 39.6642 57.9439 39.5961 58.3327L39.2188 60.4562C39.1671 60.7526 38.9095 60.969 38.6086 60.9687H36.8047C36.5038 60.969 36.2463 60.7526 36.1945 60.4562L35.8219 58.3312C35.7538 57.9423 35.4664 57.6282 35.0852 57.5257C34.2437 57.299 33.4353 56.9637 32.6805 56.528C32.3377 56.3294 31.9106 56.3483 31.5867 56.5765L29.8219 57.8163C29.5756 57.9899 29.2402 57.9608 29.0273 57.7476L27.7523 56.4726C27.5395 56.26 27.5102 55.9252 27.6828 55.6788L28.9234 53.9108C29.1515 53.5869 29.1705 53.1599 28.9719 52.8171C28.536 52.0626 28.2006 51.2545 27.9742 50.4132C27.8717 50.0319 27.5576 49.7446 27.1688 49.6765L25.0438 49.3038C24.7478 49.2522 24.5317 48.9956 24.5313 48.6952V46.8913C24.5309 46.5904 24.7473 46.3329 25.0438 46.2812L27.1688 45.9085C27.5576 45.8404 27.8717 45.553 27.9742 45.1718C28.2005 44.3296 28.5359 43.5207 28.9719 42.7655C29.1705 42.4227 29.1515 41.9957 28.9234 41.6718L27.6836 39.9093C27.51 39.663 27.5391 39.3276 27.7523 39.1147L29.0281 37.839C29.2408 37.6261 29.5758 37.5971 29.8219 37.7702L31.5898 39.0108C31.9138 39.239 32.3408 39.2579 32.6836 39.0593C33.4384 38.6236 34.2467 38.2882 35.0883 38.0616C35.4695 37.9591 35.7569 37.645 35.825 37.2562L36.1977 35.1312C36.2945 34.5787 35.9252 34.0522 35.3727 33.9554C34.8202 33.8585 34.2938 34.2279 34.1969 34.7804L33.9328 36.2882C33.3536 36.4795 32.7898 36.7146 32.2461 36.9913L30.9922 36.1116C29.9388 35.3704 28.5046 35.4954 27.5953 36.4077L26.3156 37.6788C25.4041 38.5886 25.2795 40.0222 26.0203 41.0757L26.9 42.3296C26.6232 42.8734 26.3881 43.4376 26.1969 44.0171L24.6891 44.2812C23.422 44.5037 22.4984 45.6049 22.5 46.8913V48.6952C22.4984 49.9829 23.4237 51.085 24.6922 51.3062L26.2 51.571C26.3913 52.1502 26.6263 52.7141 26.9031 53.2577L26.0203 54.5116C25.2798 55.5652 25.4047 56.9989 26.3164 57.9085L27.5922 59.1835C28.5018 60.0953 29.9357 60.2199 30.9891 59.4788L32.2391 58.5991C32.7827 58.8758 33.3466 59.1108 33.9258 59.3022L34.1898 60.8101C34.4123 62.0791 35.5163 63.0037 36.8047 62.9999H38.6086C39.8966 63.0015 40.9987 62.0758 41.2195 60.8069L41.4844 59.2991C42.0636 59.1078 42.6275 58.8727 43.1711 58.596L44.4258 59.4757C45.4793 60.2166 46.9132 60.0916 47.8227 59.1796L49.0984 57.9038C50.0102 56.9942 50.1351 55.5605 49.3945 54.5069L48.5156 53.2569C48.7923 52.7133 49.0273 52.1494 49.2188 51.5702L50.7266 51.3054C51.2791 51.2085 51.6484 50.6821 51.5516 50.1296Z" fill="#071832"/>
<path d="M60.5945 32.2188L59.532 32.0328C59.3993 31.6497 59.2427 31.2752 59.0633 30.9117L59.6883 30.0313C60.3322 29.1156 60.2237 27.8695 59.4313 27.0789L58.425 26.0703C57.6341 25.2763 56.386 25.1673 55.4695 25.8125L54.5859 26.432C54.2224 26.2525 53.848 26.0959 53.4648 25.9633L53.282 24.9055C53.0897 23.8025 52.1313 22.9982 51.0117 23H49.5906C48.4711 22.9986 47.5131 23.8033 47.3211 24.9063L47.1344 25.9688C46.7513 26.1014 46.3768 26.258 46.0133 26.4375L45.1297 25.8125C44.2141 25.1686 42.9679 25.2771 42.1773 26.0695L41.1727 27.0758C40.3786 27.8667 40.2697 29.1148 40.9148 30.0313L41.5344 30.9148C41.3548 31.2784 41.1983 31.6528 41.0656 32.0359L40.007 32.2188C38.9044 32.4111 38.1002 33.369 38.1016 34.4883V35.9094C38.0994 37.0292 38.9038 37.9881 40.007 38.1805L41.0688 38.3664C41.2014 38.7495 41.358 39.124 41.5375 39.4875L40.9172 40.3711C40.2732 41.2864 40.381 42.5323 41.1727 43.3234L42.1773 44.3281C42.9681 45.121 44.2147 45.2295 45.1305 44.5852L46.0164 43.9656C46.38 44.1451 46.7544 44.3016 47.1375 44.4344L47.3242 45.4969C47.5166 46.5995 48.4745 47.4038 49.5938 47.4023H51.0148C52.1345 47.4023 53.0916 46.5963 53.282 45.493L53.468 44.4313C53.8511 44.2986 54.2256 44.142 54.5891 43.9625L55.4695 44.5859C56.3859 45.2314 57.6342 45.1225 58.425 44.3281L59.4305 43.3227C60.2224 42.5323 60.3312 41.2868 59.6883 40.3711L59.0672 39.4844C59.2466 39.1208 59.4032 38.7464 59.5359 38.3633L60.5984 38.1766C61.6987 37.9831 62.5009 37.0273 62.5008 35.9102V34.4891C62.5026 33.3692 61.6978 32.4108 60.5945 32.2188ZM60.4695 35.9125C60.4696 36.0451 60.3743 36.1584 60.2438 36.1813L58.5688 36.475C58.1799 36.5431 57.8658 36.8305 57.7633 37.2117C57.5895 37.8567 57.3324 38.4763 56.9984 39.0547C56.7998 39.3975 56.8188 39.8245 57.0469 40.1484L58.0242 41.5422C58.1006 41.6507 58.0877 41.7985 57.9938 41.8922L56.9891 42.8969C56.8943 42.9879 56.7482 42.9984 56.6414 42.9219L55.2453 41.9453C54.9214 41.7172 54.4944 41.6983 54.1516 41.8969C53.5731 42.2309 52.9536 42.4881 52.3086 42.6617C51.9281 42.7655 51.6421 43.0802 51.575 43.4688L51.2813 45.1438C51.2584 45.2743 51.1451 45.3696 51.0125 45.3695H49.5906C49.4581 45.3696 49.3447 45.2743 49.3219 45.1438L49.0273 43.4688C48.9592 43.0799 48.6719 42.7658 48.2906 42.6633C47.6454 42.4895 47.0256 42.2324 46.4469 41.8984C46.1041 41.6998 45.677 41.7188 45.3531 41.9469L43.9633 42.9219C43.8548 42.9983 43.707 42.9854 43.6133 42.8914L42.6086 41.8867C42.5146 41.7931 42.5017 41.6452 42.5781 41.5367L43.5555 40.143C43.7836 39.8191 43.8025 39.392 43.6039 39.0492C43.2698 38.4709 43.0127 37.8513 42.8391 37.2063C42.7351 36.8261 42.4205 36.5404 42.032 36.4734L40.357 36.1797C40.2265 36.1569 40.1312 36.0435 40.1313 35.9109L40.132 34.4891C40.132 34.3565 40.2273 34.2431 40.3578 34.2203L42.032 33.9258C42.4209 33.8577 42.735 33.5703 42.8375 33.1891C43.0112 32.5441 43.2683 31.9245 43.6023 31.3461C43.8009 31.0033 43.782 30.5763 43.5539 30.2523L42.5789 28.8594C42.5025 28.7509 42.5154 28.603 42.6094 28.5094L43.6148 27.5039C43.7085 27.4099 43.8563 27.397 43.9648 27.4734L45.3578 28.4508C45.6817 28.6788 46.1088 28.6978 46.4516 28.4992C47.03 28.1652 47.6495 27.908 48.2945 27.7344C48.6758 27.6319 48.9631 27.3177 49.0313 26.9289L49.325 25.2539C49.3489 25.1257 49.4602 25.0324 49.5906 25.0313H51.0117C51.1443 25.0312 51.2577 25.1265 51.2805 25.257L51.5742 26.932C51.6423 27.3209 51.9297 27.635 52.3109 27.7375C52.9559 27.9111 53.5756 28.1682 54.1539 28.5023C54.4967 28.7009 54.9238 28.682 55.2477 28.4539L56.6414 27.4766C56.7499 27.4002 56.8977 27.413 56.9914 27.507L57.9969 28.5125C58.0882 28.6066 58.0997 28.7522 58.0242 28.8594L57.0469 30.2555C56.8188 30.5794 56.7998 31.0064 56.9984 31.3492C57.3324 31.9277 57.5895 32.5472 57.7633 33.1922C57.8658 33.5734 58.1799 33.8608 58.5688 33.9289L60.2438 34.2227C60.3743 34.2455 60.4696 34.3588 60.4695 34.4914V35.9125Z" fill="#071832"/>
<path d="M50.2996 30.3477C47.6198 30.3477 45.4473 32.5202 45.4473 35.2C45.4503 37.8786 47.621 40.0493 50.2996 40.0523C52.9795 40.0523 55.152 37.8798 55.152 35.2C55.152 32.5202 52.9795 30.3477 50.2996 30.3477ZM50.2996 38.0211C48.7416 38.0211 47.4785 36.758 47.4785 35.2C47.4781 33.6412 48.7408 32.3767 50.2996 32.375V32.3789C51.8577 32.3789 53.1207 33.642 53.1207 35.2C53.1207 36.758 51.8577 38.0211 50.2996 38.0211Z" fill="#071832"/>
</g>
<defs>
<clipPath id="clip0_423_1086">
<rect width="40" height="40" fill="white" transform="translate(22.5 23)"/>
</clipPath>
</defs>
</svg>
