<svg width="85" height="85" viewBox="0 0 85 85" fill="none" xmlns="http://www.w3.org/2000/svg">
<path d="M42.5 85C65.9721 85 85 65.9721 85 42.5C85 19.0279 65.9721 0 42.5 0C19.0279 0 0 19.0279 0 42.5C0 65.9721 19.0279 85 42.5 85Z" fill="#F7F7F7"/>
<g clip-path="url(#clip0_423_1950)">
<path d="M46.4608 44.38L46.547 44.4306C46.0313 45.3092 45.6207 46.5012 45.3067 47.6684C45.0089 48.7759 44.7998 49.8549 44.6706 50.6109H46.8552C50.0704 48.9777 52.1369 45.628 52.1368 42.0135C52.1368 36.6997 47.8136 32.3765 42.4998 32.3765C37.186 32.3765 32.8627 36.6997 32.8627 42.0135C32.8627 45.6281 34.9292 48.9778 38.1444 50.6109H40.3285C40.1992 49.8545 39.9898 48.7748 39.6919 47.6671C39.3779 46.4996 38.9674 45.3078 38.4525 44.4305C38.4525 44.4305 38.4525 44.4305 38.4525 44.4305L38.5387 44.3799C38.3884 44.1238 38.3866 43.8066 38.5343 43.5488L46.4608 44.38ZM46.4608 44.38L46.547 44.4306C46.7155 44.1435 46.7175 43.7881 46.5521 43.4991C46.3867 43.2101 46.0791 43.0319 45.7461 43.0319H39.2534C38.9204 43.0319 38.613 43.2101 38.4475 43.4991L46.4608 44.38ZM32.8241 48.2207L32.9082 48.1667L32.8241 48.2207C33.6719 49.5395 34.7735 50.6642 36.0591 51.5346C35.6245 52.0217 35.3596 52.6635 35.3596 53.3664C35.3596 54.067 35.623 54.7069 36.0549 55.1933C35.623 55.6799 35.3596 56.3197 35.3596 57.0203C35.3596 58.5398 36.5957 59.7759 38.1152 59.7759H38.3638V60.0325C38.3638 61.7762 40.1651 63.0999 42.3989 63.0999H42.6009C44.8347 63.0999 46.6358 61.7761 46.6358 60.0325V59.7759H46.8844C48.4041 59.7759 49.64 58.5398 49.64 57.0203C49.64 56.3197 49.3766 55.6798 48.9449 55.1933C49.3767 54.7068 49.64 54.067 49.64 53.3664C49.64 52.6628 49.3745 52.0204 48.9394 51.5332C50.2251 50.663 51.3277 49.5397 52.1755 48.2206C53.3653 46.3696 53.9942 44.2231 53.9942 42.0134C53.9943 35.6755 48.8379 30.5191 42.4999 30.5191C36.1618 30.5191 31.0055 35.6755 31.0055 42.0135C31.0055 44.2232 31.6343 46.3698 32.8241 48.2207ZM44.7786 59.9327H44.7785V60.0327C44.7785 60.2924 44.5787 60.5933 44.1901 60.8352C43.8062 61.0743 43.2555 61.2428 42.6009 61.2428H42.3989C41.7442 61.2428 41.1936 61.0743 40.8095 60.8352C40.4209 60.5933 40.2212 60.2924 40.2212 60.0327V59.7761H44.7786V59.9327ZM46.8844 57.9186H38.1152C37.62 57.9186 37.217 57.5156 37.217 57.0204C37.217 56.5251 37.62 56.1221 38.1152 56.1221H46.8845C47.3797 56.1221 47.7828 56.5251 47.7828 57.0204C47.7828 57.5157 47.3798 57.9186 46.8844 57.9186ZM46.8844 54.2648H38.1152C37.62 54.2648 37.217 53.8617 37.217 53.3665C37.217 52.8712 37.62 52.4682 38.1152 52.4682H46.8845C47.3797 52.4682 47.7828 52.8713 47.7828 53.3665C47.7828 53.8617 47.3797 54.2648 46.8844 54.2648ZM42.2132 50.6109C42.0122 49.3621 41.5461 46.9057 40.7302 44.8891H44.2695C43.4531 46.9066 42.9873 49.3633 42.7866 50.6109H42.2132Z" fill="#071832" stroke="#071832" stroke-width="0.2"/>
<path d="M41.8863 28.2016C41.8863 28.7146 42.302 29.1303 42.815 29.1303C43.3279 29.1303 43.7437 28.7146 43.7437 28.2016V24.6571C43.7437 24.1441 43.328 23.7285 42.815 23.7285C42.302 23.7285 41.8863 24.1441 41.8863 24.6571V28.2016Z" fill="#071832" stroke="#071832" stroke-width="0.2"/>
<path d="M28.7697 29.9042L28.7697 29.9042L31.276 32.4106C31.4573 32.5919 31.6952 32.6825 31.9326 32.6825C32.1701 32.6825 32.408 32.5917 32.5892 32.4106L32.5893 32.4106C32.9519 32.0479 32.9519 31.46 32.5893 31.0972L32.5893 31.0972L30.0829 28.5909C29.7204 28.2283 29.1323 28.2283 28.7697 28.5909L28.7697 28.5909C28.407 28.9535 28.407 29.5415 28.7697 29.9042Z" fill="#071832" stroke="#071832" stroke-width="0.2"/>
<path d="M52.4122 32.4086L52.4122 32.4086C52.5935 32.5899 52.8314 32.6805 53.069 32.6805C53.3065 32.6805 53.5442 32.5898 53.7255 32.4086L53.7255 32.4086L56.2318 29.9023C56.5946 29.5396 56.5946 28.9517 56.2318 28.5889C55.8693 28.2263 55.2812 28.2264 54.9186 28.5889L54.9186 28.5889L52.4122 31.0952C52.0496 31.4579 52.0496 32.0458 52.4122 32.4086Z" fill="#071832" stroke="#071832" stroke-width="0.2"/>
<path d="M28.5791 41.4976V41.4976C28.5791 40.9846 28.1633 40.5689 27.6504 40.5689H24.106C23.5931 40.5689 23.1773 40.9846 23.1773 41.4976C23.1773 42.0106 23.5931 42.4263 24.106 42.4263H27.6503C28.1631 42.4263 28.5789 42.0106 28.5791 41.4976Z" fill="#071832" stroke="#071832" stroke-width="0.2"/>
<path d="M57.3482 42.4263H60.8926C61.4054 42.4263 61.8212 42.0106 61.8212 41.4976C61.8212 40.9846 61.4054 40.5689 60.8926 40.5689H57.3482C56.8353 40.5689 56.4195 40.9846 56.4195 41.4976C56.4195 42.0106 56.8353 42.4263 57.3482 42.4263Z" fill="#071832" stroke="#071832" stroke-width="0.2"/>
</g>
<defs>
<clipPath id="clip0_423_1950">
<rect width="40" height="40" fill="white" transform="translate(22.5 23)"/>
</clipPath>
</defs>
</svg>
