<svg width="125" height="115" viewBox="0 0 125 115" fill="none" xmlns="http://www.w3.org/2000/svg">
<path d="M82.5195 81.6729H112.115C119.183 81.6729 124.896 75.9158 124.896 68.8713V46.1288C124.896 42.2311 123.146 38.7267 120.397 36.3666C118.148 34.4714 115.256 33.2914 112.115 33.2914H82.5195V81.6729Z" fill="#525872"/>
<path d="M13.5469 106.954H72.6661C81.8053 106.954 89.1952 99.5522 89.1952 90.398V24.6377C89.1952 15.4835 81.8053 8.08142 72.6661 8.08142H13.5469V106.954Z" fill="#A7B8D2"/>
<path d="M0.515625 2.18128V112.854C0.515625 114.07 1.47956 115.036 2.69336 115.036H11.3685C12.5823 115.036 13.5461 114.07 13.5461 112.854V2.18128C13.5461 0.965485 12.5823 0 11.3685 0H2.69336C1.47956 0 0.515625 0.965485 0.515625 2.18128Z" fill="#071832"/>
<path d="M13.5469 106.954H72.6661C81.8053 106.954 89.1952 99.5522 89.1952 90.398V24.6377C89.1952 15.4835 81.8053 8.08142 72.6661 8.08142C67.7395 79.0982 13.5469 85.6063 13.5469 85.6063V106.954Z" fill="#525872"/>
<path d="M18.3125 106.945L18.3125 8.07202H13.5287L13.5287 106.945H18.3125Z" fill="#525872"/>
<path d="M38.5352 106.954H72.6644C81.8036 106.954 89.1935 99.5522 89.1935 90.398V44.2335C89.1935 90.8271 38.5352 106.954 38.5352 106.954Z" fill="#071832"/>
<path d="M92.2734 81.6712L92.2734 33.3254H89.1675L89.1675 81.6712H92.2734Z" fill="#232851"/>
<path d="M89.1953 81.6729H112.15C119.219 81.6729 124.931 75.9157 124.931 68.8712V46.1287C124.931 42.231 123.182 38.7267 120.433 36.3666C124.788 71.8035 89.1953 77.203 89.1953 77.203V81.6729Z" fill="#071832"/>
</svg>
