<svg width="174" height="115" viewBox="0 0 174 115" fill="none" xmlns="http://www.w3.org/2000/svg">
<path d="M42.3759 81.6729H12.7806C5.71202 81.6729 0 75.9158 0 68.8713V46.1288C0 42.2311 1.74933 38.7267 4.49823 36.3666C6.74733 34.4714 9.63902 33.2914 12.7806 33.2914H42.3759V81.6729Z" fill="#525872"/>
<path d="M111.383 106.954H52.2635C43.1242 106.954 35.7344 99.5522 35.7344 90.398V24.6377C35.7344 15.4835 43.1242 8.08142 52.2635 8.08142H111.383V106.954Z" fill="#A7B8D2"/>
<path d="M124.413 2.18128V112.854C124.413 114.07 123.449 115.036 122.236 115.036H113.561C112.347 115.036 111.383 114.07 111.383 112.854V2.18128C111.383 0.965485 112.347 0 113.561 0H122.236C123.414 0 124.413 0.965485 124.413 2.18128Z" fill="#071832"/>
<path d="M124.414 42.6601V25.8177H164.648C169.289 25.8177 173.073 29.5724 173.073 34.2568C173.073 38.9054 169.325 42.6959 164.648 42.6959H124.414V42.6601Z" fill="#071832"/>
<path d="M124.414 89.1822V72.3398H164.648C169.289 72.3398 173.073 76.0945 173.073 80.7789C173.073 85.4275 169.325 89.218 164.648 89.218H124.414V89.1822Z" fill="#071832"/>
<path d="M111.383 106.954H52.2635C43.1242 106.954 35.7344 99.5522 35.7344 90.398V24.6377C35.7344 15.4835 43.1242 8.08142 52.2635 8.08142C57.1901 79.0982 111.383 85.6063 111.383 85.6063V106.954Z" fill="#525872"/>
<path d="M111.398 106.947L111.398 8.07397H106.615L106.615 106.947H111.398Z" fill="#525872"/>
<path d="M86.3926 106.954H52.2634C43.1242 106.954 35.7344 99.5522 35.7344 90.398V44.2335C35.7344 90.8271 86.3926 106.954 86.3926 106.954Z" fill="#071832"/>
<path d="M35.7227 81.6558L35.7227 33.3101H32.6168L32.6168 81.6558H35.7227Z" fill="#232851"/>
<path d="M130.293 42.6686V25.8262H124.402V42.6686H130.293Z" fill="#15172D"/>
<path d="M130.301 89.1994V72.3571H124.41V89.1994H130.301Z" fill="#15172D"/>
<path d="M35.7357 81.6729H12.7806C5.71202 81.6729 0 75.9157 0 68.8712V46.1287C0 42.231 1.74933 38.7267 4.49823 36.3666C0.142835 71.8035 35.7357 77.203 35.7357 77.203V81.6729Z" fill="#071832"/>
</svg>
