<svg width="733" height="351" viewBox="0 0 733 351" fill="none" xmlns="http://www.w3.org/2000/svg">
<path d="M238.358 39.0577L310.118 119.481M238.358 39.0577L397.648 2M238.358 39.0577V80.8462M310.118 119.481L451.271 89.5192M310.118 119.481V144.712M310.118 119.481L238.358 127.955M451.271 89.5192L397.648 2M451.271 89.5192L618.447 57.1923M397.648 2V49.3077M238.358 80.8462L397.648 49.3077M238.358 80.8462L310.118 144.712M238.358 80.8462V127.955M397.648 49.3077L451.271 119.481M397.648 49.3077V183.667M451.271 119.481L310.118 144.712M451.271 119.481V249.577M310.118 144.712V166M310.118 166L462.705 142.74L615.292 119.481M310.118 166L229.474 180.227M310.118 166L307.355 258.25M615.292 119.481H631.852M615.292 119.481L617.728 71.3846M618.447 57.1923L631.852 67.4423M618.447 57.1923L617.728 71.3846M209.97 131.308V183.667M209.97 131.308L238.358 127.955M209.97 131.308L229.474 147.865M209.97 341.661V285.058M658.663 236.173L421.305 267.418M658.663 236.173L665.76 234.113M658.663 236.173L665.76 247.378M703.612 307.135V351.288M703.612 307.135L732 353.654M703.612 307.135V288.078M703.612 307.135L676.2 263.858M703.612 395.442V351.288M703.612 395.442L596.367 412V389.923L493.853 281.115V311.411L467.042 297.673M703.612 395.442L676.2 348.758M631.852 273.231V225.923M631.852 273.231L467.042 297.673M631.852 273.231L646.046 297.404M631.852 119.481V144.712M631.852 119.481V93.4615M631.852 67.4423L658.663 119.481H703.612M631.852 67.4423V93.4615M703.612 119.481L732 214.885M703.612 119.481V144.712M732 214.885V297.673M732 214.885L689.417 227.246M732 353.654L703.612 351.288M732 353.654V297.673M676.8 230.908L683.109 229.077M676.8 230.908L672.858 232.053M676.8 230.908L665.76 209.737M631.852 144.712V225.923M631.852 144.712L482.025 169.633M631.852 144.712H646.046M631.852 144.712L641.309 162.846M703.612 144.712V230.908M703.612 144.712H646.046M209.97 214.885V183.667M209.97 214.885L254.918 207.408M209.97 214.885V285.058M397.648 351.288V183.667M397.648 183.667L451.271 249.577M397.648 183.667L482.025 169.633M397.648 183.667L359.797 189.963M451.271 249.577L631.852 225.923M451.271 249.577L421.305 254.602M209.97 183.667L229.474 180.227M209.97 183.667L224.164 196.782M229.474 147.865V180.227M229.474 147.865L366.106 263.858M306.907 273.231L306.175 297.673L254.918 306.346M306.907 273.231L307.355 258.25M306.907 273.231L366.106 263.858M306.907 273.231L254.918 225.197M254.918 207.408L307.355 258.25M254.918 207.408L359.797 189.963M307.355 258.25L386.585 337.497M366.106 263.858L372.414 269.214M366.106 263.858L421.305 254.602M224.164 196.782L467.042 155.75V297.673M224.164 196.782L254.918 225.197M224.164 196.782V306.346V311.411M482.025 169.633V305.35M407.214 346.752L280.446 219.957M280.446 219.957L254.918 225.197M280.446 219.957L372.414 203.298M254.918 225.197V306.346M372.414 203.298V269.214M372.414 203.298L359.797 189.963M372.414 203.298L421.305 254.602M372.414 269.214L377.146 273.231L421.305 267.418M421.305 254.602V267.418M254.918 306.346L224.164 311.411M187.89 273.231L209.97 285.058M187.89 273.231L90.1079 286.019M187.89 273.231V317.385M90.1079 330.788L1 344.192V297.673L90.1079 286.019M90.1079 330.788V286.019M90.1079 330.788L187.89 317.385M187.89 317.385L224.164 311.411M617.728 71.3846L631.852 93.4615M631.852 93.4615L703.612 230.908M703.612 230.908V269.021M702.823 238.538L732 297.673M689.417 227.246L646.046 144.712M689.417 227.246L683.109 229.077M683.109 229.077L703.612 269.021M703.612 269.021V288.078M703.612 288.078L672.858 232.053M672.858 232.053L665.76 234.113M641.309 162.846L646.046 297.404M641.309 162.846L650.765 180.981M646.046 297.404L650.765 305.441M650.765 180.981V305.441M650.765 180.981L658.663 196.127M650.765 305.441L658.663 318.892M658.663 196.127V318.892M658.663 196.127L665.76 209.737M658.663 318.892L665.76 330.979M665.76 209.737V234.113M665.76 247.378V330.979M665.76 247.378L676.2 263.858M665.76 330.979L676.2 348.758M676.2 263.858V348.758" stroke="#E3E3E3" stroke-width="2"/>
</svg>
