<svg width="80" height="11" viewBox="0 0 80 11" fill="none" xmlns="http://www.w3.org/2000/svg">
<path d="M54.5762 0.473633C53.5685 0.474544 52.5837 0.768416 51.7463 1.3181C50.9089 1.86779 50.2564 2.64861 49.8714 3.56186C49.4864 4.47511 49.3862 5.4798 49.5834 6.44891C49.7805 7.41803 50.2662 8.30806 50.9791 9.00651C51.692 9.70496 52.6 10.1805 53.5884 10.3729C54.5768 10.5654 55.6012 10.4661 56.5321 10.0878C57.463 9.70938 58.2587 9.06884 58.8184 8.2471C59.3782 7.42537 59.6769 6.45934 59.6769 5.47113C59.6754 4.14538 59.1373 2.87444 58.1809 1.93742C57.2246 1.00041 55.9281 0.473937 54.5762 0.473633ZM54.5762 9.70483C53.7221 9.70483 52.8871 9.45643 52.1769 8.99104C51.4667 8.52566 50.9133 7.8642 50.5864 7.09032C50.2596 6.31643 50.1742 5.46488 50.3409 4.64337C50.5076 3.82186 50.919 3.06728 51.5231 2.47507C52.1271 1.88287 52.8967 1.47963 53.7344 1.31635C54.5722 1.15308 55.4405 1.23711 56.2296 1.55781C57.0186 1.87851 57.693 2.42149 58.1673 3.11805C58.6417 3.81462 58.8948 4.6335 58.8945 5.47113C58.8905 6.59296 58.4342 7.6677 57.6252 8.46085C56.8162 9.254 55.7201 9.70118 54.5762 9.70483Z" fill="#212721"/>
<path fill-rule="evenodd" clip-rule="evenodd" d="M54.5763 0C53.4729 2.39881e-08 52.3944 0.320838 51.477 0.921946C50.5596 1.52305 49.8445 2.37744 49.4222 3.37706C48.9999 4.37668 48.8894 5.47665 49.1045 6.53789C49.3197 7.59912 49.8509 8.57396 50.631 9.33913C51.4111 10.1043 52.4051 10.6255 53.4872 10.8367C54.5693 11.0479 55.691 10.9397 56.7104 10.5258C57.7298 10.1119 58.6012 9.41087 59.2144 8.51133C59.8275 7.61178 60.1549 6.55414 60.1551 5.47213C60.1539 4.0214 59.5658 2.63043 58.5198 1.6045C57.4739 0.578578 56.0556 0.00152528 54.5763 0ZM54.5763 9.23119C53.8176 9.23119 53.076 9.01056 52.4453 8.59721C51.8145 8.18385 51.3229 7.59634 51.0326 6.90897C50.7423 6.2216 50.6665 5.46526 50.8145 4.73559C50.9626 4.00593 51.328 3.33572 51.8646 2.80973C52.4011 2.28374 53.0846 1.92559 53.8287 1.78059C54.5728 1.63559 55.3441 1.71024 56.0449 1.9951C56.7457 2.27997 57.3447 2.76225 57.766 3.38096C58.1873 3.99966 58.4121 4.727 58.4118 5.47098C58.4078 6.46723 58.0024 7.42154 57.2839 8.1259C56.5654 8.83026 55.5922 9.22755 54.5763 9.23119Z" fill="#212721"/>
<path d="M73.5531 1.515V5.08628H78.2297V5.86275H73.5531V9.42712H78.9169V10.1886H72.7906V0.767334H78.9169V1.515H73.5531Z" fill="#212721"/>
<path d="M69.6175 10.2037H68.7952L63.1482 2.05654V10.2037H62.3564V0.75705H63.2081L63.2528 0.815803L68.8258 8.86041V0.752441H69.6175V10.2037Z" fill="#212721"/>
<path d="M47.6675 0.752441V1.52891H44.3054V10.2037H43.5136V1.52891H40.1527V0.752441H47.6675Z" fill="#212721"/>
<path d="M38.3389 7.81544C38.3257 8.20191 38.2238 8.58048 38.0408 8.92296C37.8577 9.26544 37.5982 9.563 37.2816 9.79348C36.652 10.2531 35.8296 10.4835 34.9169 10.4835C34.8519 10.4854 34.7869 10.4804 34.723 10.4686C33.7362 10.4386 32.8705 10.131 32.2431 9.55961C31.7194 9.08297 31.3862 8.43881 31.3033 7.74287V7.58389H32.0834L32.0951 7.72674C32.1826 8.2386 32.4403 8.70768 32.8282 9.06079C33.3063 9.48588 33.963 9.70477 34.77 9.73472C35.5771 9.76467 36.2643 9.58841 36.7577 9.23589C36.9925 9.07626 37.1853 8.86427 37.3203 8.61733C37.4553 8.3704 37.5286 8.09557 37.5342 7.81544C37.5647 7.18529 37.2804 6.70143 36.6978 6.31781C36.1597 5.9722 35.4279 5.76138 34.8452 5.58512L34.5315 5.49757L34.3025 5.42729C33.7644 5.26601 33.1066 5.06095 32.5685 4.6946C31.9119 4.25453 31.5829 3.66815 31.6123 2.95044C31.6191 2.58958 31.7152 2.23575 31.8922 1.91931C32.0692 1.60287 32.3218 1.33328 32.6285 1.13369C33.2417 0.708591 34.1075 0.473577 35.0343 0.50353C36.4992 0.562283 37.6493 1.28 38.1274 2.43778L38.1427 2.48156L37.3803 2.68662C37.0044 1.8226 36.1127 1.28 35.0073 1.2512C34.2155 1.23622 33.573 1.3975 33.1277 1.70509C32.9096 1.84646 32.7299 2.03785 32.6042 2.26268C32.4785 2.48751 32.4106 2.739 32.4064 2.99536C32.3923 3.47922 32.6308 3.86054 33.1841 4.18195C33.6916 4.47572 34.3788 4.69576 35.0073 4.87317L35.1718 4.91694C35.7991 5.10818 36.5909 5.34204 37.2335 5.76714C37.9947 6.23256 38.3835 6.93645 38.3389 7.81544Z" fill="#212721"/>
<path d="M24.1244 0.752201H21.1206V10.1988H24.1244C26.7981 10.1988 28.9796 8.07448 28.9796 5.47551C28.9709 4.21886 28.4554 3.01666 27.5456 2.13162C26.6359 1.24658 25.4059 0.75065 24.1244 0.752201ZM24.1244 9.44194H21.8924V1.51484H24.1244C24.661 1.50587 25.194 1.60176 25.6924 1.79692C26.1907 1.99208 26.6445 2.2826 27.0272 2.65154C27.4099 3.02048 27.7138 3.46045 27.9213 3.94579C28.1288 4.43113 28.2356 4.95213 28.2356 5.47839C28.2356 6.00465 28.1288 6.52565 27.9213 7.01099C27.7138 7.49633 27.4099 7.9363 27.0272 8.30524C26.6445 8.67418 26.1907 8.9647 25.6924 9.15986C25.194 9.35502 24.661 9.45091 24.1244 9.44194Z" fill="#212721"/>
<path fill-rule="evenodd" clip-rule="evenodd" d="M74.0358 1.98802V4.61579H78.7124V6.34038H74.0358V8.95202H79.3997V10.6628H72.3077V0.292236H79.3997V1.98802H74.0358Z" fill="#212721"/>
<path fill-rule="evenodd" clip-rule="evenodd" d="M70.1016 0.278809V10.677H68.4687L63.6311 3.59204V10.677H61.8726V0.278809H63.4491L63.6464 0.535711L68.343 7.31424V0.278809H70.1016Z" fill="#212721"/>
<path fill-rule="evenodd" clip-rule="evenodd" d="M48.1515 0.278809V2.00339H44.7894V10.677H43.0308V2.00339H39.6687V0.278809H48.1515Z" fill="#212721"/>
<path fill-rule="evenodd" clip-rule="evenodd" d="M38.8218 7.8336C38.8051 8.28923 38.6844 8.73537 38.4685 9.13913C38.2525 9.54289 37.9469 9.89396 37.5742 10.1665C36.8482 10.6918 35.9202 10.9475 34.9263 10.9475H34.9205C34.8418 10.9485 34.7633 10.9431 34.6855 10.9314C33.6283 10.8934 32.6497 10.5558 31.9284 9.89458C31.3196 9.34188 30.9318 8.59436 30.8347 7.78637V7.75757V7.11013H32.5428L32.5898 7.66656C32.662 8.06672 32.8648 8.43303 33.1678 8.7103C33.539 9.03862 34.0747 9.23447 34.8018 9.26097C35.529 9.28746 36.1046 9.12618 36.4876 8.85315C36.6625 8.73607 36.8063 8.57957 36.9069 8.39676C37.0074 8.21396 37.0619 8.01018 37.0656 7.8025V7.79328C37.0867 7.35666 36.9105 7.01912 36.4441 6.71499C36.0059 6.42813 35.4033 6.24726 34.8253 6.07331L34.7219 6.0422L34.4024 5.95234L34.1581 5.87516C33.6271 5.71618 32.9034 5.49384 32.2973 5.08141C31.5231 4.56415 31.0967 3.83261 31.1319 2.93288C31.1415 2.49867 31.2575 2.07309 31.4702 1.69212C31.6828 1.31114 31.9858 0.985952 32.3537 0.744027C33.0667 0.249808 34.0418 -0.0036383 35.0556 0.0286185C36.6732 0.093132 38.0148 0.897247 38.5798 2.25779L38.5857 2.27162L38.7666 2.80616L37.1055 3.25314L36.9399 2.87182C36.652 2.20941 35.9472 1.74975 34.9957 1.72786C34.2697 1.71403 33.7399 1.86495 33.4027 2.09536C33.246 2.1952 33.1172 2.33173 33.0277 2.49263C32.9383 2.65353 32.8912 2.83373 32.8905 3.01698C32.8821 3.1523 32.917 3.28682 32.9904 3.40175C33.1053 3.55938 33.2556 3.68904 33.4297 3.78077C33.8797 4.03998 34.5117 4.24158 35.1366 4.4213L35.3034 4.46508H35.3105L35.3763 4.48581C35.9824 4.66898 36.8071 4.91897 37.4908 5.37057C38.3965 5.92239 38.8747 6.78295 38.8218 7.8336Z" fill="#212721"/>
<path fill-rule="evenodd" clip-rule="evenodd" d="M24.1246 0.278812H20.6379V10.677H24.1246C27.0614 10.677 29.4638 8.34415 29.4638 5.48482C29.4573 4.10088 28.8917 2.7759 27.8909 1.80011C26.8902 0.824315 25.5358 0.277273 24.1246 0.278812ZM24.1246 8.9674H22.3813V1.98842H24.1246C25.0683 1.98842 25.9734 2.35606 26.6407 3.01047C27.308 3.66487 27.6829 4.55244 27.6829 5.47791C27.6829 6.40338 27.308 7.29095 26.6407 7.94535C25.9734 8.59976 25.0683 8.9674 24.1246 8.9674Z" fill="#212721"/>
<path fill-rule="evenodd" clip-rule="evenodd" d="M13.2323 1.98802V4.61579H17.8937V6.34038H13.2323V8.95202H18.5809V10.6628H11.4878V0.292236H18.5809V1.98802H13.2323Z" fill="#212721"/>
<path fill-rule="evenodd" clip-rule="evenodd" d="M9.66573 10.6641H7.59936L5.34385 7.03641H2.55619L1.51889 5.34293H5.81375C6.03929 5.34293 6.26262 5.29936 6.471 5.21472C6.67937 5.13008 6.8687 5.00602 7.02819 4.84962C7.18767 4.69322 7.31418 4.50755 7.40049 4.30321C7.4868 4.09886 7.53122 3.87985 7.53122 3.65867C7.53122 3.43748 7.4868 3.21847 7.40049 3.01413C7.31418 2.80978 7.18767 2.62411 7.02819 2.46771C6.8687 2.31131 6.67937 2.18725 6.471 2.10261C6.26262 2.01797 6.03929 1.9744 5.81375 1.9744H1.07014L0.0328369 0.295898H5.81375C6.59588 0.299476 7.35334 0.564705 7.9609 1.04773C8.56846 1.53076 8.98973 2.20266 9.15506 2.95234C9.32039 3.70202 9.21987 4.48458 8.87014 5.17064C8.5204 5.8567 7.94239 6.40517 7.23166 6.72536L9.66573 10.6641Z" fill="#212721"/>
<path d="M0.352417 8.59009H2.46695V10.6637H0.352417V8.59009Z" fill="#E70000"/>
</svg>
