<svg width="602" height="486" viewBox="0 0 602 486" fill="none" xmlns="http://www.w3.org/2000/svg">
<mask id="mask0_258_66243" style="mask-type:alpha" maskUnits="userSpaceOnUse" x="0" y="0" width="602" height="486">
<rect x="0.933594" width="600.135" height="486" fill="white"/>
</mask>
<g mask="url(#mask0_258_66243)">
<path d="M332.968 236.702L601.5 270.292M332.968 236.702V0M332.968 236.702L353.624 256.121M332.968 236.702L268.934 249.036M332.968 236.702L350.01 212.559M332.968 236.702L407.331 261.7M601.5 270.292L594.787 94.9957M601.5 270.292L540.564 275.54M601.5 270.292L591.688 249.036M594.787 94.9957L332.968 0M594.787 94.9957L586.524 118.613M332.968 0L268.934 24.1425M332.968 0L350.01 39.3629M268.934 24.1425V249.036M268.934 24.1425V20.9935L251.892 27.2916V34.1145M268.934 473.929L345.362 486M268.934 473.929V361.482M268.934 473.929H251.892M345.362 486V361.089M345.362 486L501.317 462.907M345.362 361.089H436.766M345.362 361.089H334.517M436.766 361.089L501.317 462.907M436.766 361.089L489.766 402.026M501.317 462.907V444.013M489.766 402.026L501.317 410.948V444.013M489.766 402.026H501.317M529.719 402.026V444.013M529.719 402.026H540.564M529.719 402.026H520.424M529.719 444.013H501.317M529.719 444.013H540.564V402.026M540.564 275.54V402.026M540.564 275.54L520.424 273.448M353.624 256.121L268.934 249.036M353.624 256.121L407.331 261.7M353.624 256.121L334.517 278.164M268.934 249.036L295.787 275.54M268.934 249.036V361.482M350.01 39.3629V46.7106M350.01 39.3629L402.683 57.0125M350.01 212.559V46.7106M350.01 212.559L402.683 220.509M591.688 249.036L586.67 122.287M591.688 249.036L534.883 240.462M586.524 118.613L586.67 122.287M586.524 118.613L496.153 88.3321M350.01 46.7106L534.883 105.749M586.67 122.287L534.883 105.749M534.883 105.749V240.462M534.883 240.462L496.153 234.617M496.153 88.3321V234.617M496.153 88.3321L455.357 74.6622M496.153 234.617L455.357 228.459M455.357 74.6622V228.459M455.357 74.6622L402.683 57.0125M455.357 228.459L402.683 220.509M402.683 57.0125V220.509M407.331 261.7L501.317 271.463M295.787 275.54L334.517 278.164M295.787 275.54L282.36 361.402M295.787 275.54L325.738 282.363M334.517 278.164V361.089M334.517 278.164L325.738 282.363M334.517 361.089L325.738 361.141M268.934 361.482L282.36 361.402M282.36 361.402L325.738 361.141M325.738 282.363V361.141M520.424 273.448V402.026M520.424 273.448L501.317 271.463M520.424 402.026H501.317M501.317 271.463V402.026M251.892 473.929L178.562 463.432V410.948L184.759 411.525M251.892 473.929V417.771M251.892 417.771L184.759 411.525M251.892 417.771V34.1145M184.759 411.525L190.86 57.0125M66.5017 445.587L167.718 459.758L171.198 233.553M66.5017 445.587H56.1736M66.5017 445.587L72.0692 249.036M76.3135 99.1944L173.831 62.4557M76.3135 99.1944V93.946L64.4361 99.1944L64.2984 104.968M76.3135 99.1944L75.0796 142.756M173.831 62.4557L173.915 57.0125L190.956 51.4341L190.86 57.0125M173.831 62.4557L173.047 113.365M190.86 57.0125L251.892 34.1145M56.1736 445.587L3.5 438.24V121.762H9.18048V124.911L64.2984 104.968M56.1736 445.587L64.2984 104.968M75.0796 142.756L173.047 113.365M75.0796 142.756L72.0692 249.036M173.047 113.365L172.952 119.595M171.198 233.553L94.3877 245.55M171.198 233.553L171.57 209.41M72.0692 249.036L85.6088 246.921M85.6088 246.921L94.3877 245.55M85.6088 246.921V224.631M94.3877 245.55V223.076M172.952 119.595L94.3877 144.205M172.952 119.595L171.57 209.41M94.3877 144.205L85.6088 146.955V224.631M94.3877 144.205V146.955V223.076M85.6088 224.631L94.3877 223.076M171.57 209.41L94.3877 223.076" stroke="#E3E3E3" stroke-width="2"/>
</g>
</svg>
