<svg width="16" height="16" viewBox="0 0 16 16" fill="none" xmlns="http://www.w3.org/2000/svg">
<path d="M11.5844 0H4.4153C1.98071 0 0 1.9808 0 4.4154V11.5845C0 14.0192 1.98071 15.9999 4.4153 15.9999H11.5844C14.0192 15.9999 15.9999 14.0191 15.9999 11.5845V4.4154C16 1.9808 14.0192 0 11.5844 0ZM14.5804 11.5845C14.5804 13.2364 13.2364 14.5803 11.5845 14.5803H4.4153C2.76347 14.5804 1.41959 13.2364 1.41959 11.5845V4.4154C1.41959 2.76356 2.76347 1.41959 4.4153 1.41959H11.5844C13.2363 1.41959 14.5803 2.76356 14.5803 4.4154V11.5845H14.5804Z" fill="#071832"/>
<path d="M7.99972 3.87695C5.72639 3.87695 3.87695 5.72639 3.87695 7.99972C3.87695 10.273 5.72639 12.1223 7.99972 12.1223C10.2731 12.1223 12.1225 10.273 12.1225 7.99972C12.1225 5.72639 10.2731 3.87695 7.99972 3.87695ZM7.99972 10.7026C6.50925 10.7026 5.29654 9.4901 5.29654 7.99963C5.29654 6.50906 6.50916 5.29645 7.99972 5.29645C9.49029 5.29645 10.7029 6.50906 10.7029 7.99963C10.7029 9.4901 9.4902 10.7026 7.99972 10.7026Z" fill="#071832"/>
<path d="M12.2949 2.67383C12.0214 2.67383 11.7528 2.78456 11.5596 2.97857C11.3655 3.17163 11.2539 3.44041 11.2539 3.71486C11.2539 3.98846 11.3656 4.25714 11.5596 4.45115C11.7527 4.64422 12.0214 4.75589 12.2949 4.75589C12.5694 4.75589 12.8372 4.64422 13.0312 4.45115C13.2252 4.25714 13.336 3.98837 13.336 3.71486C13.336 3.44041 13.2252 3.17163 13.0312 2.97857C12.8382 2.78456 12.5694 2.67383 12.2949 2.67383Z" fill="#071832"/>
</svg>
