<svg width="24" height="19" viewBox="0 0 24 19" fill="none" xmlns="http://www.w3.org/2000/svg">
<path d="M2.5 18.25H21.5C22.4631 18.25 23.25 17.4631 23.25 16.5V2.50001C23.25 1.53686 22.4631 0.75 21.5 0.75H2.5C1.53686 0.75 0.75 1.53686 0.75 2.50001V16.5C0.75 17.4631 1.53686 18.25 2.5 18.25ZM2.24994 2.50001C2.24994 2.36305 2.36305 2.24995 2.5 2.24995H21.5C21.6369 2.24995 21.7501 2.36305 21.7501 2.50001V16.5C21.7501 16.6369 21.6369 16.7501 21.5 16.7501H2.5C2.36305 16.7501 2.24994 16.6369 2.24994 16.5V2.50001Z" fill="#525872" stroke="#525872" stroke-width="0.5"/>
<path d="M10.4165 10.7224L10.4164 10.7225L10.4228 10.7272C10.8816 11.0665 11.431 11.25 12.0001 11.25C12.5703 11.25 13.1192 11.0658 13.5943 10.7157L13.5944 10.7158L13.601 10.7105L22.155 3.94799L22.3467 3.79648L22.1996 3.60139L21.6328 2.84951L21.4788 2.64519L21.2781 2.80392L12.739 9.55773C12.3088 9.87343 11.6817 9.86315 11.2725 9.56355L2.72183 2.80388L2.52115 2.64523L2.36716 2.84951L1.80037 3.60139L1.65328 3.7965L1.84499 3.94801L10.4165 10.7224Z" fill="#525872" stroke="#525872" stroke-width="0.5"/>
</svg>
