<svg width="328" height="170" viewBox="0 0 328 170" fill="none" xmlns="http://www.w3.org/2000/svg">
<g clip-path="url(#clip0_481_7779)">
<rect width="327" height="170" transform="translate(0.667969)" fill="#0AC5A8"/>
<rect x="-73.832" y="-40" width="402" height="308" fill="#F7F7F7"/>
<path opacity="0.15" d="M109.34 101.459H80.168V16H122.869M109.34 101.459H136.398V83.3119H122.869M109.34 101.459V83.3119H122.869M122.869 83.3119V16M122.869 16H170.01V20.4312M150.984 101.459V83.3119H141.049V101.459H150.984ZM150.984 101.459H165.359M157.538 83.3119H165.359M165.359 83.3119V66.8532H183.327M165.359 83.3119V101.459M183.327 66.8532V101.459H165.359M183.327 66.8532V47.2294M183.327 47.2294V42.5872L170.01 29.2936V20.4312M183.327 47.2294H192.417M192.417 47.2294V24.8624V20.4312M192.417 47.2294H206.158M192.417 47.2294V64.5321M246.111 16H206.158M206.158 16H192.417V20.4312M206.158 16V47.2294M122.869 111.587H80.168V154H122.869M122.869 111.587V154M122.869 111.587H163.879M122.869 154H163.879M163.879 111.587V154M163.879 111.587H206.158M163.879 154H206.158V139.018M206.158 111.587V112.642M206.158 111.587V96.8165M247.168 112.642H219.687M206.158 112.642H219.687M206.158 112.642V139.018M219.687 112.642V139.018M219.687 139.018H246.111M219.687 139.018H206.158M206.158 83.3119H215.459M206.158 83.3119V90.2752M206.158 83.3119H192.417V96.8165H206.158M206.158 83.3119V76.9817M246.111 83.3119H236.176M236.176 83.3119V101.459H215.459V90.2752M236.176 83.3119H215.459M215.459 83.3119V90.2752M215.459 90.2752H206.158M206.158 90.2752V96.8165M206.158 66.8532H192.417M206.158 66.8532V76.9817M206.158 66.8532V47.2294M192.417 66.8532V64.5321M192.417 66.8532V72.3394H188.401M192.417 64.5321H188.401M192.417 76.9817H206.158M192.417 20.4312H170.01" stroke="#071832"/>
</g>
<defs>
<clipPath id="clip0_481_7779">
<rect width="327" height="170" fill="white" transform="translate(0.667969)"/>
</clipPath>
</defs>
</svg>
