<svg width="24" height="24" viewBox="0 0 24 24" fill="none" xmlns="http://www.w3.org/2000/svg">
<path d="M11.9995 5.20424e-07C10.0551 -0.000628735 8.15323 0.56939 6.52972 1.63939C4.9062 2.7094 3.6324 4.23234 2.86623 6.01942C2.10005 7.80651 1.87518 9.77916 2.2195 11.6928C2.56381 13.6065 3.46218 15.3771 4.80322 16.785L11.4557 23.7675C11.5259 23.8411 11.6102 23.8996 11.7037 23.9396C11.7972 23.9796 11.8978 24.0001 11.9995 24C12.1011 24.0001 12.2018 23.9796 12.2952 23.9396C12.3887 23.8996 12.4731 23.8411 12.5432 23.7675C12.8095 23.49 19.057 16.9463 19.357 16.6163C20.6503 15.1912 21.5021 13.4214 21.8089 11.5215C22.1156 9.62172 21.8641 7.6737 21.085 5.91406C20.3058 4.15442 19.0325 2.65886 17.4197 1.60902C15.8069 0.559169 13.9239 0.000203144 11.9995 5.20424e-07V5.20424e-07ZM18.247 15.6075C18.0332 15.84 14.3357 19.7325 11.9995 22.1625C10.4395 20.5275 6.04072 15.9075 5.88697 15.75C4.75722 14.559 3.99941 13.0644 3.70641 11.4492C3.41341 9.83397 3.59794 8.16837 4.23739 6.65647C4.87684 5.14457 5.94343 3.85204 7.30647 2.93724C8.66952 2.02245 10.2698 1.52514 11.9113 1.50624C13.5527 1.48733 15.164 1.94767 16.5478 2.83083C17.9315 3.71399 19.0276 4.98162 19.7017 6.4784C20.3758 7.97517 20.5986 9.63608 20.3429 11.2576C20.0872 12.8791 19.364 14.3908 18.262 15.6075H18.247Z" fill="#0AC5A8"/>
<path d="M12 4.3125C10.8875 4.3125 9.79995 4.6424 8.87492 5.26048C7.94989 5.87857 7.22892 6.75707 6.80318 7.78491C6.37744 8.81274 6.26604 9.94374 6.48309 11.0349C6.70013 12.126 7.23586 13.1283 8.02253 13.915C8.8092 14.7016 9.81148 15.2374 10.9026 15.4544C11.9938 15.6715 13.1248 15.5601 14.1526 15.1343C15.1804 14.7086 16.0589 13.9876 16.677 13.0626C17.2951 12.1376 17.625 11.05 17.625 9.9375C17.625 8.44566 17.0324 7.01492 15.9775 5.96002C14.9226 4.90513 13.4918 4.3125 12 4.3125ZM12 14.0625C11.1842 14.0625 10.3866 13.8206 9.70827 13.3673C9.02992 12.9141 8.50121 12.2698 8.189 11.5161C7.87679 10.7623 7.7951 9.93292 7.95426 9.13275C8.11343 8.33258 8.50629 7.59758 9.08319 7.02068C9.66008 6.44379 10.3951 6.05092 11.1953 5.89176C11.9954 5.7326 12.8248 5.81429 13.5786 6.1265C14.3323 6.43871 14.9766 6.96742 15.4298 7.64577C15.8831 8.32413 16.125 9.12165 16.125 9.9375C16.125 11.0315 15.6904 12.0807 14.9168 12.8543C14.1432 13.6279 13.094 14.0625 12 14.0625Z" fill="#0AC5A8"/>
</svg>
