<svg width="80" height="80" viewBox="0 0 80 80" fill="none" xmlns="http://www.w3.org/2000/svg">
<g clip-path="url(#clip0_238_8014)">
<path fill-rule="evenodd" clip-rule="evenodd" d="M40.0781 15.3125C26.4656 15.3125 15.3906 26.3877 15.3906 40C15.3906 53.6123 26.4656 64.6875 40.0781 64.6875C53.6906 64.6875 64.7656 53.6125 64.7656 40C64.7656 26.3875 53.6906 15.3125 40.0781 15.3125ZM40.0781 62.1875C27.8438 62.1875 17.8906 52.2344 17.8906 40C17.8906 27.7656 27.8438 17.8125 40.0781 17.8125C52.3125 17.8125 62.2656 27.7656 62.2656 40C62.2656 52.2344 52.3125 62.1875 40.0781 62.1875ZM48.7392 33.95C48.8554 34.0661 48.9476 34.204 49.0105 34.3557C49.0734 34.5074 49.1058 34.6701 49.1058 34.8344C49.1058 34.9986 49.0734 35.1613 49.0105 35.313C48.9476 35.4648 48.8554 35.6027 48.7392 35.7188L38.4084 46.0497C38.1739 46.2838 37.856 46.4153 37.5245 46.4153C37.1931 46.4153 36.8752 46.2838 36.6406 46.0497L31.4178 40.8262C31.3005 40.7105 31.2073 40.5727 31.1434 40.4208C31.0796 40.2689 31.0464 40.1058 31.0458 39.941C31.0452 39.7762 31.0772 39.613 31.14 39.4606C31.2027 39.3082 31.295 39.1698 31.4114 39.0532C31.5279 38.9366 31.6663 38.8442 31.8186 38.7812C31.9709 38.7183 32.1341 38.6861 32.2989 38.6865C32.4637 38.6869 32.6268 38.7199 32.7787 38.7836C32.9307 38.8473 33.0686 38.9403 33.1845 39.0575L37.5239 43.398L46.9725 33.9497C47.2069 33.7155 47.5246 33.584 47.8559 33.584C48.1872 33.584 48.505 33.7155 48.7394 33.9497L48.7392 33.95ZM40.0781 0C62.1344 0 80.0781 17.9434 80.0781 40C80.0781 62.0566 62.1345 80 40.0781 80C18.0217 80 0.078125 62.0561 0.078125 40C0.078125 17.9439 18.0217 0 40.0781 0Z" fill="#0AC5A8"/>
</g>
<defs>
<clipPath id="clip0_238_8014">
<rect width="80" height="80" fill="white"/>
</clipPath>
</defs>
</svg>
