<svg width="80" height="80" viewBox="0 0 80 80" fill="none" xmlns="http://www.w3.org/2000/svg">
<path d="M39.9254 79.8975C61.9486 79.8975 79.8019 62.0442 79.8019 40.021C79.8019 17.9977 61.9486 0.144409 39.9254 0.144409C17.9022 0.144409 0.0488281 17.9977 0.0488281 40.021C0.0488281 62.0442 17.9022 79.8975 39.9254 79.8975Z" fill="#33BBA4"/>
<path d="M29.9044 31.9701C30.4375 32.5913 30.7019 33.3469 30.7019 34.2368C30.7019 35.4372 30.2402 36.3649 29.3168 37.0197C28.3933 37.6745 27.0459 38.0019 25.2787 38.0019H20.2207V24.2424H25.2787C26.857 24.2424 28.0533 24.5321 28.8718 25.1113C29.6861 25.6906 30.0975 26.5469 30.0975 27.6802C30.0975 28.4106 29.8834 29.0444 29.4511 29.5943C29.0187 30.14 28.3975 30.5219 27.5874 30.736C28.599 30.9375 29.3713 31.3489 29.9044 31.9701ZM22.9701 26.2027V29.7622H25.2787C25.9377 29.7622 26.4498 29.6111 26.8066 29.3089C27.1634 29.0066 27.3439 28.5575 27.3439 27.9614C27.3439 27.3402 27.1676 26.8911 26.8192 26.614C26.4666 26.337 25.9545 26.1985 25.2829 26.1985H22.9701V26.2027ZM27.26 35.4918C27.7175 35.1266 27.9484 34.5893 27.9484 33.8716C27.9484 32.4402 27.0585 31.7266 25.2787 31.7266H22.9701V36.0375H25.2787C26.1434 36.0375 26.8024 35.857 27.26 35.4918Z" fill="white"/>
<path d="M44.5206 36.0375V38.0019H35.6387V24.2424H44.1177V26.2069H38.3923V29.7496H43.3076V31.714H38.3923V36.0459H44.5206V36.0375Z" fill="white"/>
<path d="M48.5508 37.1499L49.2182 35.2274C49.894 35.58 50.553 35.836 51.1994 36.0081C51.8458 36.176 52.5342 36.26 53.2646 36.26C54.0873 36.26 54.7757 36.0921 55.3298 35.7521C55.8839 35.4163 56.1609 34.9294 56.1609 34.2955C56.1609 33.9052 56.0308 33.5694 55.7663 33.2923C55.5019 33.0153 55.1745 32.7844 54.7841 32.6039C54.3937 32.4234 53.8523 32.2094 53.1639 31.9659C52.274 31.6427 51.5562 31.3405 51.0105 31.0634C50.4649 30.7864 49.9947 30.4044 49.6044 29.9091C49.214 29.418 49.0167 28.7926 49.0167 28.037C49.0167 26.7568 49.491 25.762 50.4439 25.0526C51.3967 24.3432 52.6518 23.9906 54.2174 23.9906C55.7831 23.9906 57.1599 24.3558 58.3436 25.082L57.6762 26.9834C56.5555 26.337 55.4305 26.0138 54.2972 26.0138C53.5416 26.0138 52.9204 26.1775 52.4335 26.5007C51.9466 26.8239 51.7031 27.2815 51.7031 27.8775C51.7031 28.2301 51.8291 28.5323 52.0767 28.7884C52.3244 29.0444 52.635 29.2585 53.0086 29.4264C53.3779 29.5943 53.9026 29.8084 54.5784 30.0644C55.4977 30.4002 56.2365 30.715 56.8031 31.0047C57.3698 31.2943 57.8567 31.6931 58.2597 32.1968C58.6626 32.7047 58.8683 33.3469 58.8683 34.1276C58.8683 35.4247 58.3772 36.4363 57.3908 37.175C56.4044 37.9096 55.0444 38.279 53.3024 38.279C51.3883 38.2832 49.8058 37.9054 48.5508 37.1499Z" fill="white"/>
<path d="M26.4531 42.9088H27.9768C28.6568 42.9088 29.1186 43.3705 29.1186 43.9162C29.1186 44.2059 28.9968 44.3863 28.8835 44.5081C28.8163 44.5794 28.7408 44.634 28.6568 44.676C28.7828 44.7263 28.8919 44.7977 28.9842 44.8817C29.1521 45.0286 29.3116 45.2594 29.3116 45.5994C29.3116 46.1997 28.7953 46.716 28.0608 46.716H26.4531V42.9088ZM27.9768 44.4619C28.3042 44.4619 28.5225 44.2478 28.5225 43.9456C28.5225 43.6392 28.3042 43.4293 27.9768 43.4293H27.0492V44.4619H27.9768ZM28.0608 46.2039C28.447 46.2039 28.7156 45.931 28.7156 45.5784C28.7156 45.2258 28.447 44.953 28.0608 44.953H27.0534V46.2039H28.0608Z" fill="white"/>
<path d="M30.0996 42.9088H30.6999V45.1965C30.6999 45.7967 31.1364 46.2291 31.7073 46.2291C32.2529 46.2291 32.7147 45.7673 32.7147 45.1965V42.9088H33.3149V45.1965C33.3149 46.1241 32.6601 46.7747 31.7073 46.7747C30.7544 46.7747 30.0996 46.1199 30.0996 45.1965V42.9088Z" fill="white"/>
<path d="M34.3477 42.9088H34.9479V46.7202H34.3477V42.9088Z" fill="white"/>
<path d="M36.0352 42.9088H36.6354V46.1493H38.4865V46.7202H36.0352V42.9088Z" fill="white"/>
<path d="M39.1387 42.9088H40.4189C41.5355 42.9088 42.4044 43.7861 42.4044 44.8145C42.4044 45.8429 41.5313 46.7202 40.4189 46.7202H39.1387V42.9088ZM40.4189 46.1787C41.2081 46.1787 41.8083 45.5784 41.8083 44.8187C41.8083 44.0589 41.2081 43.4587 40.4189 43.4587H39.7389V46.1829H40.4189V46.1787Z" fill="white"/>
<path d="M43.25 42.9088H43.8502V46.7202H43.25V42.9088Z" fill="white"/>
<path d="M44.9375 42.9088H45.4832L47.5777 45.7128V42.9088H48.178V46.7202H47.6323L45.5377 43.9162V46.7202H44.9375V42.9088Z" fill="white"/>
<path d="M51.2798 44.7054H52.6691V46.0402C52.5558 46.1745 52.4131 46.3004 52.2494 46.4096C51.9723 46.5984 51.5652 46.7747 51.0363 46.7747C49.8946 46.7747 49.0215 45.9017 49.0215 44.8145C49.0215 43.7273 49.8946 42.8542 51.0363 42.8542C51.561 42.8542 51.9388 43.0347 52.2032 43.2236C52.3501 43.3328 52.4803 43.4503 52.5894 43.5888L52.2074 43.9708C52.1319 43.8659 52.0311 43.7693 51.9178 43.6896C51.7205 43.5426 51.4267 43.3999 51.0363 43.3999C50.2472 43.3999 49.6217 44.0254 49.6217 44.8145C49.6217 45.6036 50.2472 46.2291 51.0363 46.2291C51.3805 46.2291 51.6365 46.1325 51.8086 46.0276C51.9136 45.9688 51.9975 45.8975 52.0689 45.8219V45.251H51.2798V44.7054Z" fill="white"/>
<path d="M20.2988 49.4443H22.9936V50.0152H20.8991V50.9932H22.5613V51.5641H20.8991V52.6806H23.0482V53.2515H20.2988V49.4443Z" fill="white"/>
<path d="M23.8359 49.4443H24.3816L26.4762 52.2483V49.4443H27.0764V53.2557H26.5308L24.4362 50.4517V53.2557H23.8359V49.4443Z" fill="white"/>
<path d="M30.1841 51.241H31.5734V52.5758C31.4601 52.7101 31.3174 52.8361 31.1537 52.9452C30.8766 53.1341 30.4695 53.3104 29.9406 53.3104C28.7989 53.3104 27.9258 52.4373 27.9258 51.3501C27.9258 50.263 28.7989 49.3899 29.9406 49.3899C30.4653 49.3899 30.8431 49.5704 31.1075 49.7593C31.2544 49.8684 31.3845 49.9859 31.4937 50.1245L31.1117 50.5064C31.0361 50.4015 30.9354 50.305 30.8221 50.2252C30.6248 50.0783 30.331 49.9356 29.9406 49.9356C29.1515 49.9356 28.526 50.561 28.526 51.3501C28.526 52.1393 29.1515 52.7647 29.9406 52.7647C30.2848 52.7647 30.5408 52.6682 30.7129 52.5632C30.8179 52.5045 30.9018 52.4331 30.9732 52.3575V51.7867H30.1841V51.241Z" fill="white"/>
<path d="M32.5508 49.4443H33.151V53.2557H32.5508V49.4443Z" fill="white"/>
<path d="M34.2383 49.4443H34.784L36.8785 52.2483V49.4443H37.4788V53.2557H36.9331L34.8385 50.4517V53.2557H34.2383V49.4443Z" fill="white"/>
<path d="M38.5664 49.4443H41.2612V50.0152H39.1667V50.9932H40.8289V51.5641H39.1667V52.6806H41.3158V53.2515H38.5664V49.4443Z" fill="white"/>
<path d="M42.1035 49.4443H44.7983V50.0152H42.7038V50.9932H44.366V51.5641H42.7038V52.6806H44.8529V53.2515H42.1035V49.4443Z" fill="white"/>
<path d="M45.6487 49.4443H47.227C47.9616 49.4443 48.4779 49.969 48.4779 50.6406C48.4779 51.0688 48.2932 51.3332 48.1127 51.5011C48.0035 51.5977 47.886 51.6774 47.7475 51.7278L48.6122 53.2515H47.9322L47.143 51.8369H46.2448V53.2515H45.6445V49.4443H45.6487ZM47.227 51.2954C47.6132 51.2954 47.8818 51.0268 47.8818 50.6406C47.8818 50.2545 47.6132 49.9858 47.227 49.9858H46.249V51.2912H47.227V51.2954Z" fill="white"/>
<path d="M49.4043 49.4443H50.0045V53.2557H49.4043V49.4443Z" fill="white"/>
<path d="M51.0918 49.4443H51.6375L53.732 52.2483V49.4443H54.3323V53.2557H53.7866L51.692 50.4517V53.2557H51.0918V49.4443Z" fill="white"/>
<path d="M57.4341 51.2409H58.8234V52.5757C58.7101 52.71 58.5674 52.8359 58.4037 52.9451C58.1266 53.134 57.7195 53.3103 57.1906 53.3103C56.0489 53.3103 55.1758 52.4372 55.1758 51.35C55.1758 50.2629 56.0489 49.3898 57.1906 49.3898C57.7153 49.3898 58.0931 49.5703 58.3575 49.7592C58.5044 49.8683 58.6345 49.9858 58.7437 50.1243L58.3617 50.5063C58.2862 50.4014 58.1854 50.3048 58.0721 50.2251C57.8748 50.0782 57.581 49.9354 57.1906 49.9354C56.4015 49.9354 55.776 50.5609 55.776 51.35C55.776 52.1392 56.4015 52.7646 57.1906 52.7646C57.5348 52.7646 57.7908 52.668 57.9629 52.5631C58.0679 52.5043 58.1518 52.433 58.2232 52.3574V51.7866H57.4341V51.2409Z" fill="white"/>
<path d="M24.8209 58.8637C24.8797 58.9434 24.9553 59.0148 25.0476 59.082C25.2071 59.1911 25.4464 59.3002 25.7738 59.3002C26.2691 59.3002 26.5377 59.0316 26.5377 58.7294C26.5377 57.8857 24.5229 58.402 24.5229 56.9874C24.5229 56.4165 25.0182 55.9254 25.8283 55.9254C26.2187 55.9254 26.5209 56.0471 26.7224 56.1689C26.8441 56.2402 26.9449 56.32 27.0288 56.4123L26.6217 56.8195C26.5629 56.7523 26.4957 56.6936 26.4202 56.6432C26.2901 56.555 26.0886 56.4627 25.8325 56.4627C25.3708 56.4627 25.1232 56.702 25.1232 56.979C25.1232 57.8227 27.138 57.3064 27.138 58.721C27.138 59.3212 26.6217 59.8375 25.778 59.8375C25.3162 59.8375 24.972 59.7032 24.7496 59.5563C24.6195 59.4765 24.5103 59.3758 24.418 59.2666L24.8209 58.8637Z" fill="white"/>
<path d="M29.6633 55.9254C30.805 55.9254 31.6781 56.7985 31.6781 57.8857C31.6781 58.9728 30.805 59.8459 29.6633 59.8459C28.5215 59.8459 27.6484 58.9728 27.6484 57.8857C27.6484 56.7943 28.5215 55.9254 29.6633 55.9254ZM29.6633 59.3002C30.4524 59.3002 31.0778 58.6748 31.0778 57.8857C31.0778 57.0965 30.4524 56.4711 29.6633 56.4711C28.8741 56.4711 28.2487 57.0965 28.2487 57.8857C28.2487 58.6748 28.8741 59.3002 29.6633 59.3002Z" fill="white"/>
<path d="M32.5215 55.98H33.1217V59.2205H34.9728V59.7913H32.5215V55.98Z" fill="white"/>
<path d="M35.3555 55.98H35.9557V58.2676C35.9557 58.8679 36.3923 59.3002 36.9631 59.3002C37.5088 59.3002 37.9705 58.8385 37.9705 58.2676V55.98H38.5708V58.2676C38.5708 59.1953 37.916 59.8459 36.9631 59.8459C36.0103 59.8459 35.3555 59.1911 35.3555 58.2676V55.98Z" fill="white"/>
<path d="M40.3097 56.5508H39.168V55.98H42.0517V56.5508H40.9099V59.7913H40.3097V56.5508Z" fill="white"/>
<path d="M42.7051 55.98H43.3053V59.7913H42.7051V55.98Z" fill="white"/>
<path d="M46.1633 55.9254C47.305 55.9254 48.1781 56.7985 48.1781 57.8857C48.1781 58.9728 47.305 59.8459 46.1633 59.8459C45.0215 59.8459 44.1484 58.9728 44.1484 57.8857C44.1484 56.7943 45.0173 55.9254 46.1633 55.9254ZM46.1633 59.3002C46.9524 59.3002 47.5778 58.6748 47.5778 57.8857C47.5778 57.0965 46.9524 56.4711 46.1633 56.4711C45.3741 56.4711 44.7487 57.0965 44.7487 57.8857C44.7487 58.6748 45.3741 59.3002 46.1633 59.3002Z" fill="white"/>
<path d="M49.0215 55.98H49.5672L51.6617 58.7839V55.98H52.262V59.7913H51.7163L49.6217 56.9874V59.7913H49.0215V55.98Z" fill="white"/>
<path d="M53.3795 58.8637C53.4383 58.9434 53.5138 59.0148 53.6062 59.082C53.7657 59.1911 54.005 59.3002 54.3324 59.3002C54.8277 59.3002 55.0963 59.0316 55.0963 58.7294C55.0963 57.8857 53.0815 58.402 53.0815 56.9874C53.0815 56.4165 53.5768 55.9254 54.3869 55.9254C54.7773 55.9254 55.0795 56.0471 55.281 56.1689C55.4027 56.2402 55.5035 56.32 55.5874 56.4123L55.1803 56.8195C55.1215 56.7523 55.0543 56.6936 54.9788 56.6432C54.8487 56.555 54.6472 56.4627 54.3911 56.4627C53.9294 56.4627 53.6817 56.702 53.6817 56.979C53.6817 57.8227 55.6966 57.3064 55.6966 58.721C55.6966 59.3212 55.1803 59.8375 54.3366 59.8375C53.8748 59.8375 53.5306 59.7032 53.3082 59.5563C53.178 59.4765 53.0689 59.3758 52.9766 59.2666L53.3795 58.8637Z" fill="white"/>
</svg>
