<svg width="24" height="24" viewBox="0 0 24 24" fill="none" xmlns="http://www.w3.org/2000/svg">
<path d="M2.5 21.25H21.5C22.4631 21.25 23.25 20.4631 23.25 19.5V5.50001C23.25 4.53686 22.4631 3.75 21.5 3.75H2.5C1.53686 3.75 0.75 4.53686 0.75 5.50001V19.5C0.75 20.4631 1.53686 21.25 2.5 21.25ZM2.24994 5.50001C2.24994 5.36305 2.36305 5.24995 2.5 5.24995H21.5C21.6369 5.24995 21.7501 5.36305 21.7501 5.50001V19.5C21.7501 19.6369 21.6369 19.7501 21.5 19.7501H2.5C2.36305 19.7501 2.24994 19.6369 2.24994 19.5V5.50001Z" fill="#0AC5A8" stroke="#0AC5A8" stroke-width="0.5"/>
<path d="M10.4165 13.7224L10.4164 13.7225L10.4228 13.7272C10.8816 14.0665 11.431 14.25 12.0001 14.25C12.5703 14.25 13.1192 14.0658 13.5943 13.7157L13.5944 13.7158L13.601 13.7105L22.155 6.94799L22.3467 6.79648L22.1996 6.60139L21.6328 5.84951L21.4788 5.64519L21.2781 5.80392L12.739 12.5577C12.3088 12.8734 11.6817 12.8631 11.2725 12.5635L2.72183 5.80388L2.52115 5.64523L2.36716 5.84951L1.80037 6.60139L1.65328 6.7965L1.84499 6.94801L10.4165 13.7224Z" fill="#0AC5A8" stroke="#0AC5A8" stroke-width="0.5"/>
</svg>
