<svg width="85" height="85" viewBox="0 0 85 85" fill="none" xmlns="http://www.w3.org/2000/svg">
<path d="M42.5 85C65.9721 85 85 65.9721 85 42.5C85 19.0279 65.9721 0 42.5 0C19.0279 0 0 19.0279 0 42.5C0 65.9721 19.0279 85 42.5 85Z" fill="#F7F7F7"/>
<path d="M34.2667 30.5002C34.2688 29.8576 34.0905 29.2273 33.752 28.681C33.4136 28.1347 32.9287 27.6944 32.3524 27.4101C31.7761 27.1258 31.1315 27.0089 30.4921 27.0728C29.8526 27.1366 29.244 27.3787 28.7353 27.7714C28.2266 28.1641 27.8384 28.6917 27.6147 29.2941C27.391 29.8966 27.3409 30.5497 27.4701 31.1792C27.5993 31.8087 27.9025 32.3893 28.3453 32.855C28.7703 33.3019 29.3074 33.6257 29.9 33.7931V39.7077C29.2031 39.9139 28.5888 40.3362 28.1466 40.9147C27.6889 41.5134 27.4408 42.2462 27.4408 42.9999C27.4408 43.7536 27.6889 44.4864 28.1466 45.0851C28.5888 45.6636 29.2031 46.0859 29.9 46.2921V52.2067C29.1224 52.4263 28.4462 52.9136 27.9917 53.5838C27.5227 54.2754 27.3221 55.1144 27.4274 55.9433C27.5327 56.7723 27.9367 57.5345 28.5637 58.0869C29.1907 58.6393 29.9977 58.9441 30.8333 58.9441C31.669 58.9441 32.476 58.6393 33.103 58.0869C33.73 57.5345 34.134 56.7723 34.2393 55.9433C34.3446 55.1144 34.1439 54.2754 33.6749 53.5838C33.2205 52.9136 32.5443 52.4263 31.7667 52.2067V46.2921C32.4636 46.0859 33.0778 45.6636 33.5201 45.0851C33.9778 44.4864 34.2258 43.7536 34.2258 42.9999C34.2258 42.2462 33.9778 41.5134 33.5201 40.9147C33.0778 40.3362 32.4636 39.9139 31.7667 39.7077V33.7931C32.4711 33.5942 33.0942 33.175 33.5442 32.596C34.0101 31.9965 34.2642 31.2595 34.2667 30.5002ZM29.2667 30.4999C29.2667 30.1901 29.3586 29.8872 29.5307 29.6295C29.7029 29.3719 29.9475 29.1711 30.2338 29.0525C30.5201 28.9339 30.8351 28.9029 31.139 28.9633C31.4429 29.0238 31.722 29.173 31.9411 29.3921C32.1602 29.6112 32.3095 29.8904 32.3699 30.1943C32.4304 30.4982 32.3993 30.8132 32.2808 31.0994C32.1622 31.3857 31.9614 31.6304 31.7037 31.8025C31.4461 31.9747 31.1432 32.0666 30.8333 32.0666C30.4178 32.0666 30.0193 31.9015 29.7255 31.6077C29.4317 31.3139 29.2667 30.9154 29.2667 30.4999ZM32.4 55.4999C32.4 55.8098 32.3081 56.1127 32.136 56.3703C31.9638 56.6279 31.7191 56.8287 31.4329 56.9473C31.1466 57.0659 30.8316 57.0969 30.5277 57.0365C30.2238 56.976 29.9446 56.8268 29.7255 56.6077C29.5064 56.3886 29.3572 56.1095 29.2968 55.8056C29.2363 55.5017 29.2674 55.1866 29.3859 54.9004C29.5045 54.6141 29.7053 54.3694 29.9629 54.1973C30.2206 54.0251 30.5235 53.9332 30.8333 53.9332C31.2488 53.9332 31.6473 54.0983 31.9411 54.3921C32.2349 54.6859 32.4 55.0844 32.4 55.4999ZM32.4 42.9999C32.4 43.3098 32.3081 43.6127 32.136 43.8703C31.9638 44.1279 31.7192 44.3287 31.4329 44.4473C31.1466 44.5659 30.8316 44.5969 30.5277 44.5365C30.2238 44.476 29.9446 44.3268 29.7255 44.1077C29.5064 43.8886 29.3572 43.6095 29.2968 43.3056C29.2363 43.0016 29.2674 42.6866 29.3859 42.4004C29.5045 42.1141 29.7053 41.8694 29.9629 41.6973C30.2206 41.5251 30.5235 41.4332 30.8333 41.4332C31.2488 41.4332 31.6473 41.5983 31.9411 41.8921C32.2349 42.1859 32.4 42.5844 32.4 42.9999Z" fill="#071832" stroke="#071832" stroke-width="0.2"/>
<path d="M56.666 27.9H37.4993C37.2518 27.9 37.0144 27.9983 36.8394 28.1734C36.6643 28.3484 36.566 28.5858 36.566 28.8333C36.566 29.0809 36.6643 29.3183 36.8394 29.4933C37.0144 29.6683 37.2518 29.7667 37.4993 29.7667H56.666C56.9136 29.7667 57.1509 29.6683 57.326 29.4933C57.501 29.3183 57.5994 29.0809 57.5994 28.8333C57.5994 28.5858 57.501 28.3484 57.326 28.1734C57.1509 27.9983 56.9136 27.9 56.666 27.9Z" fill="#071832" stroke="#071832" stroke-width="0.2"/>
<path d="M37.4993 33.0997H48.3327C48.5802 33.0997 48.8176 33.0013 48.9926 32.8263C49.1677 32.6513 49.266 32.4139 49.266 32.1663C49.266 31.9188 49.1677 31.6814 48.9926 31.5064C48.8176 31.3313 48.5802 31.233 48.3327 31.233H37.4993C37.2518 31.233 37.0144 31.3313 36.8394 31.5064C36.6643 31.6814 36.566 31.9188 36.566 32.1663C36.566 32.4139 36.6643 32.6513 36.8394 32.8263C37.0144 33.0013 37.2518 33.0997 37.4993 33.0997Z" fill="#071832" stroke="#071832" stroke-width="0.2"/>
<path d="M57.5994 53.8333C57.5994 53.5858 57.501 53.3484 57.326 53.1734C57.1509 52.9983 56.9136 52.9 56.666 52.9H37.4993C37.2518 52.9 37.0144 52.9983 36.8394 53.1734C36.6643 53.3484 36.566 53.5858 36.566 53.8333C36.566 54.0809 36.6643 54.3183 36.8394 54.4933C37.0144 54.6683 37.2518 54.7667 37.4993 54.7667H56.666C56.9136 54.7667 57.1509 54.6683 57.326 54.4933C57.501 54.3183 57.5994 54.0809 57.5994 53.8333Z" fill="#071832" stroke="#071832" stroke-width="0.2"/>
<path d="M37.4993 56.233C37.2518 56.233 37.0144 56.3313 36.8394 56.5064C36.6643 56.6814 36.566 56.9188 36.566 57.1663C36.566 57.4139 36.6643 57.6513 36.8394 57.8263C37.0144 58.0013 37.2518 58.0997 37.4993 58.0997H48.3327C48.5802 58.0997 48.8176 58.0013 48.9926 57.8263C49.1677 57.6513 49.266 57.4139 49.266 57.1663C49.266 56.9188 49.1677 56.6814 48.9926 56.5064C48.8176 56.3313 48.5802 56.233 48.3327 56.233H37.4993Z" fill="#071832" stroke="#071832" stroke-width="0.2"/>
<path d="M56.666 40.4H37.4993C37.2518 40.4 37.0144 40.4983 36.8394 40.6734C36.6643 40.8484 36.566 41.0858 36.566 41.3333C36.566 41.5809 36.6643 41.8183 36.8394 41.9933C37.0144 42.1683 37.2518 42.2667 37.4993 42.2667H56.666C56.9136 42.2667 57.1509 42.1683 57.326 41.9933C57.501 41.8183 57.5994 41.5809 57.5994 41.3333C57.5994 41.0858 57.501 40.8484 57.326 40.6734C57.1509 40.4983 56.9136 40.4 56.666 40.4Z" fill="#071832" stroke="#071832" stroke-width="0.2"/>
<path d="M37.4993 45.5997H48.3327C48.5802 45.5997 48.8176 45.5013 48.9926 45.3263C49.1677 45.1513 49.266 44.9139 49.266 44.6663C49.266 44.4188 49.1677 44.1814 48.9926 44.0064C48.8176 43.8313 48.5802 43.733 48.3327 43.733H37.4993C37.2518 43.733 37.0144 43.8313 36.8394 44.0064C36.6643 44.1814 36.566 44.4188 36.566 44.6663C36.566 44.9139 36.6643 45.1513 36.8394 45.3263C37.0144 45.5013 37.2518 45.5997 37.4993 45.5997Z" fill="#071832" stroke="#071832" stroke-width="0.2"/>
</svg>
