<svg width="85" height="85" viewBox="0 0 85 85" fill="none" xmlns="http://www.w3.org/2000/svg">
<path d="M42.5 85C65.9721 85 85 65.9721 85 42.5C85 19.0279 65.9721 0 42.5 0C19.0279 0 0 19.0279 0 42.5C0 65.9721 19.0279 85 42.5 85Z" fill="#F7F7F7"/>
<path d="M30.04 33.63V51H27.1V36.54L22.54 37.74V34.8L27.04 33.63H30.04ZM40.8995 33.33C42.1595 33.33 43.2395 33.57 44.1395 34.05C45.0595 34.51 45.8095 35.15 46.3895 35.97C46.9695 36.79 47.3995 37.75 47.6795 38.85C47.9595 39.93 48.0995 41.09 48.0995 42.33C48.0995 43.57 47.9595 44.74 47.6795 45.84C47.3995 46.94 46.9695 47.9 46.3895 48.72C45.8095 49.52 45.0595 50.16 44.1395 50.64C43.2395 51.1 42.1595 51.33 40.8995 51.33C39.6395 51.33 38.5495 51.1 37.6295 50.64C36.7295 50.16 35.9895 49.52 35.4095 48.72C34.8295 47.9 34.3995 46.94 34.1195 45.84C33.8395 44.74 33.6995 43.57 33.6995 42.33C33.6995 41.09 33.8395 39.93 34.1195 38.85C34.3995 37.75 34.8295 36.79 35.4095 35.97C35.9895 35.15 36.7295 34.51 37.6295 34.05C38.5495 33.57 39.6395 33.33 40.8995 33.33ZM40.8995 36.09C39.9995 36.09 39.2695 36.28 38.7095 36.66C38.1695 37.04 37.7395 37.53 37.4195 38.13C37.1195 38.73 36.9095 39.4 36.7895 40.14C36.6895 40.88 36.6395 41.61 36.6395 42.33C36.6395 43.05 36.6895 43.78 36.7895 44.52C36.9095 45.26 37.1195 45.93 37.4195 46.53C37.7395 47.13 38.1695 47.62 38.7095 48C39.2695 48.38 39.9995 48.57 40.8995 48.57C41.7995 48.57 42.5195 48.38 43.0595 48C43.6195 47.62 44.0495 47.13 44.3495 46.53C44.6695 45.93 44.8795 45.26 44.9795 44.52C45.0995 43.78 45.1595 43.05 45.1595 42.33C45.1595 41.61 45.0995 40.88 44.9795 40.14C44.8795 39.4 44.6695 38.73 44.3495 38.13C44.0495 37.53 43.6195 37.04 43.0595 36.66C42.5195 36.28 41.7995 36.09 40.8995 36.09ZM60.2434 46.2H57.3934V49.26H54.4534V46.2H51.6034V43.74H54.4534V40.68H57.3934V43.74H60.2434V46.2Z" fill="#071832"/>
</svg>
